<?xml version="1.0" encoding="iso-8859-1"?>
<!-- Generator: Adobe Illustrator 16.0.3, SVG Export Plug-In . SVG Version: 6.00 Build 0)  -->
<!DOCTYPE svg PUBLIC "-//W3C//DTD SVG 1.1//EN" "http://www.w3.org/Graphics/SVG/1.1/DTD/svg11.dtd">
<svg version="1.1" id="Layer_1" xmlns="http://www.w3.org/2000/svg" xmlns:xlink="http://www.w3.org/1999/xlink" x="0px" y="0px"
	 width="100px" height="90px" viewBox="0 0 100 90" style="enable-background:new 0 0 100 90;" xml:space="preserve">
<g>
	<path style="fill-rule:evenodd;clip-rule:evenodd;fill:#F57F20;" d="M95.808,79.567c-2.382-0.907-4.524-1.718-6.663-2.539
		c-8.007-3.07-16.016-6.137-24.013-9.233c-0.598-0.23-1.183-0.609-1.647-1.049C50.318,54.285,37.168,41.809,24.017,29.333
		c-0.274-0.261-0.539-0.532-0.718-0.711c5.942-6.266,11.845-12.488,17.839-18.808c0.116,0.102,0.399,0.335,0.665,0.588
		c13.205,12.521,26.41,25.041,39.604,37.574c0.369,0.351,0.722,0.773,0.928,1.233c4.402,9.832,8.783,19.674,13.167,29.515
		C95.584,78.909,95.641,79.105,95.808,79.567z M73.332,58.184c-0.241-0.021-0.373-0.021-0.5-0.046
		c-2.978-0.592-4.73,0.31-5.934,3.092c-0.262,0.604-0.396,1.263-0.641,1.875c-0.325,0.813-0.114,1.221,0.745,1.542
		c5.351,2.004,10.688,4.041,16.005,6.135c0.92,0.361,1.465,0.3,2.138-0.456c1.736-1.946,1.779-1.913,0.72-4.292
		c-2.17-4.87-4.334-9.74-6.537-14.594c-0.143-0.312-0.666-0.745-0.894-0.684C74.332,51.871,72.124,53.648,73.332,58.184z"/>
	<path style="fill-rule:evenodd;clip-rule:evenodd;fill:#F57F20;" d="M35.71,4.706c-5.935,6.259-11.835,12.481-17.837,18.812
		c-2.899-2.888-4.358-6.39-3.926-10.497c0.59-5.59,3.656-9.386,8.959-11.246C27.295,0.235,32.713,1.533,35.71,4.706z"/>
	<path style="fill:#104760;" d="M90.409,79.486c-5.932,8.026-15.198,3.852-22.53,0.311c-6.715-3.243-13.229-7.132-20.922-6.76
		c-7.538,0.364-14.696,3.223-22.137,4.219c-9.258,1.24-13.953-3.118-15.928-12.054c-0.834-3.777-6.618-2.175-5.785,1.596
		c1.963,8.884,6.676,15.563,16.125,16.625c8.646,0.972,17.329-3.094,25.785-4.205c17.305-2.274,35.97,23.059,50.573,3.296
		C97.894,79.397,92.682,76.41,90.409,79.486L90.409,79.486z"/>
</g>
</svg>
