<?xml version="1.0" encoding="iso-8859-1"?>
<!-- Generator: Adobe Illustrator 16.0.3, SVG Export Plug-In . SVG Version: 6.00 Build 0)  -->
<!DOCTYPE svg PUBLIC "-//W3C//DTD SVG 1.1//EN" "http://www.w3.org/Graphics/SVG/1.1/DTD/svg11.dtd">
<svg version="1.1" id="Layer_1" xmlns="http://www.w3.org/2000/svg" xmlns:xlink="http://www.w3.org/1999/xlink" x="0px" y="0px"
	 width="80px" height="100px" viewBox="0 0 80 100" style="enable-background:new 0 0 80 100;" xml:space="preserve">
<g>
	<g>
		<path style="fill-rule:evenodd;clip-rule:evenodd;fill:#104760;" d="M44.419,70.897c-4.365,0-8.73,0.015-13.097-0.011
			c-1.013-0.007-1.486,0.401-1.445,1.414c0.015,0.341,0.002,0.684,0.002,1.025c0.002,1.768,0.161,1.923,1.968,1.923
			c8.161,0,16.321,0,24.481,0c2.318,0,2.406-0.089,2.396-2.45c-0.001-0.076,0.001-0.15-0.001-0.228
			c-0.024-1.395-0.292-1.672-1.664-1.673C52.845,70.895,48.631,70.897,44.419,70.897z M43.742,54.165
			c4.133,0,8.265-0.014,12.396,0.009c1.057,0.006,1.563-0.418,1.488-1.491c-0.02-0.302-0.002-0.607-0.003-0.91
			c-0.001-1.798-0.194-1.989-2.04-1.989c-7.921-0.002-15.845-0.002-23.767,0c-1.733,0-1.937,0.21-1.938,1.971
			c0,0.228,0,0.454,0,0.683c0.008,1.507,0.212,1.726,1.695,1.728C35.631,54.169,39.687,54.166,43.742,54.165z M41.604,64.997
			c2.996,0,5.989,0,8.984,0c2.763,0,2.763,0,2.742-2.717c-0.011-1.468-0.169-1.635-1.642-1.635
			c-6.367-0.005-12.735-0.003-19.103-0.003c-2.743,0-2.743,0-2.707,2.751c0.018,1.308,0.297,1.599,1.605,1.601
			C34.858,65,38.231,64.996,41.604,64.997z M40.094,39.033c-2.917,0-5.834,0.008-8.751-0.004c-0.98-0.005-1.496,0.417-1.464,1.43
			c0.01,0.341,0,0.683,0,1.023c0.002,1.769,0.195,1.972,1.937,1.973c5.189,0.005,10.38,0.002,15.57,0.002
			c2.778,0,2.778,0,2.754-2.732c-0.012-1.447-0.254-1.688-1.748-1.691C45.625,39.029,42.86,39.033,40.094,39.033z M23.161,65.901
			c1.703-0.021,3.067-1.441,3.042-3.16c-0.028-1.726-1.419-3.045-3.169-3.006c-1.675,0.038-3,1.397-2.993,3.074
			C20.05,64.506,21.48,65.924,23.161,65.901z M23.176,69.989c-1.735-0.027-3.125,1.324-3.134,3.045
			c-0.009,1.697,1.405,3.125,3.089,3.122c1.649-0.004,3.034-1.363,3.072-3.018C26.242,71.41,24.902,70.016,23.176,69.989z
			 M23.152,44.297c1.758-0.014,3.08-1.359,3.053-3.105c-0.027-1.703-1.458-3.076-3.162-3.035c-1.64,0.04-3.003,1.44-3.001,3.087
			C20.044,42.979,21.401,44.312,23.152,44.297z M26.206,51.997c-0.001-1.692-1.437-3.13-3.107-3.11
			c-1.682,0.021-3.085,1.474-3.057,3.164c0.027,1.666,1.385,3.01,3.052,3.02C24.82,55.081,26.207,53.712,26.206,51.997z"/>
		<path style="fill:#F57F20;" d="M75.999,29.673L49.666,2.381L6.152,2.452C4.92,2.452,4,3.627,4,4.457c0,31.021,0,58.537,0,89.558
			C4,95.176,4.917,97,6.804,97c23.888,0,43.775,0,67.663,0c0.851,0,1.457-1.426,1.5-2.242L75.999,29.673z M46.985,32
			C53.056,32,58,32,64,32c0,19,0,37,0,55c-17,0-34,0-51,0c0-24,0-49,0-73c11,0,21,0,31,0c0,6,0,10.297,0,15.904
			C44,30.722,44.25,32,46.985,32z"/>
	</g>
</g>
</svg>
