<?xml version="1.0" encoding="iso-8859-1"?>
<!-- Generator: Adobe Illustrator 16.0.3, SVG Export Plug-In . SVG Version: 6.00 Build 0)  -->
<!DOCTYPE svg PUBLIC "-//W3C//DTD SVG 1.1//EN" "http://www.w3.org/Graphics/SVG/1.1/DTD/svg11.dtd">
<svg version="1.1" id="Layer_1" xmlns="http://www.w3.org/2000/svg" xmlns:xlink="http://www.w3.org/1999/xlink" x="0px" y="0px"
	 width="170px" height="70px" viewBox="0 0 170 70" style="enable-background:new 0 0 170 70;" xml:space="preserve">
<path style="fill-rule:evenodd;clip-rule:evenodd;fill:#F57F20;" d="M80.327,9.805c-0.035-4.818-4.153-8.697-8.971-8.698
	C51.481,1.1,31.607,1.1,11.732,1.105c-4.924,0.002-8.983,3.976-9.002,8.92C2.69,20.799,2.694,31.57,2.729,42.342
	c0.015,4.659,3.485,8.463,8.124,8.895c1.77,0.166,3.566,0.027,5.544,0.027c0,0.679,0,1.106,0,1.535c0,4.69,0.01,9.381-0.009,14.072
	c-0.005,1.128,0.304,2.059,1.392,2.535c1.085,0.472,1.967,0.077,2.799-0.7c5.867-5.475,11.766-10.913,17.62-16.401
	c0.755-0.707,1.506-0.981,2.529-0.979c10.096,0.032,20.192,0.034,30.288,0.014c5.148-0.01,9.271-3.78,9.31-8.742
	C80.411,31.668,80.406,20.735,80.327,9.805z M20.981,14.172c7.489,0,16.048,0,24.606,0c2.14,0,2.14,4.279,0,4.279
	c-8.559,0-17.117,0-24.606,0C16.701,18.451,16.701,14.172,20.981,14.172z M20.981,23.801c12.839,0,25.677,0,38.516,0
	c3.209,0,3.209,4.28,0,4.28c-12.839,0-25.677,0-38.516,0C16.701,28.081,16.701,23.801,20.981,23.801z M20.981,34.5
	c9.629,0,20.327,0,31.026,0c3.21,0,3.21,4.279,0,4.279c-10.699,0-21.397,0-31.026,0C16.701,38.779,16.701,34.5,20.981,34.5z"/>
<path style="fill-rule:evenodd;clip-rule:evenodd;fill:#104760;" d="M164.759,31.079c-5.063,5.087-10.141,10.16-15.225,15.225
	c-1.866,1.86-4.846,2.2-7.117,0.867c-3.433-2.014-3.979-6.585-1.114-9.468c1.63-1.637,3.264-3.274,4.898-4.907
	c-14.427-0.008-37.787-0.025-43.159-0.05c-2.634-0.012-4.976-1.883-5.634-4.433c-0.993-3.853,1.861-7.466,5.926-7.468
	c4.182-0.003,31.934,0.015,42.881,0.029c-1.55-1.551-3.102-3.1-4.65-4.651c-0.236-0.236-0.467-0.476-0.685-0.729
	c-1.971-2.299-1.885-5.768,0.194-7.936c2.43-2.535,6.162-2.524,8.743,0.052c4.9,4.89,9.791,9.788,14.686,14.684
	c0.137,0.138,0.271,0.283,0.401,0.428C167.091,25.124,167.045,28.785,164.759,31.079z"/>
</svg>
