<?xml version="1.0" encoding="iso-8859-1"?>
<!-- Generator: Adobe Illustrator 16.0.3, SVG Export Plug-In . SVG Version: 6.00 Build 0)  -->
<!DOCTYPE svg PUBLIC "-//W3C//DTD SVG 1.1//EN" "http://www.w3.org/Graphics/SVG/1.1/DTD/svg11.dtd">
<svg version="1.1" id="Layer_1" xmlns="http://www.w3.org/2000/svg" xmlns:xlink="http://www.w3.org/1999/xlink" x="0px" y="0px"
	 width="170px" height="70px" viewBox="0 0 170 70" style="enable-background:new 0 0 170 70;" xml:space="preserve">
<path style="fill-rule:evenodd;clip-rule:evenodd;fill:#F57F20;" d="M89.885,42.598c0.038,4.962,4.161,8.732,9.31,8.742
	c10.096,0.021,20.192,0.019,30.288-0.014c1.023-0.003,1.774,0.271,2.529,0.979c5.854,5.488,11.753,10.927,17.62,16.401
	c0.832,0.777,1.714,1.172,2.799,0.7c1.088-0.477,1.396-1.407,1.392-2.535c-0.019-4.691-0.009-9.382-0.009-14.072
	c0-0.429,0-0.856,0-1.535c1.978,0,3.774,0.139,5.544-0.027c4.639-0.432,8.109-4.235,8.124-8.895
	c0.035-10.771,0.039-21.543-0.001-32.316c-0.019-4.944-4.078-8.918-9.002-8.92C138.604,1.1,118.729,1.1,98.854,1.106
	c-4.817,0.001-8.936,3.88-8.971,8.698C89.805,20.735,89.8,31.668,89.885,42.598z M149.229,18.451c-7.489,0-16.048,0-24.606,0
	c-2.14,0-2.14-4.279,0-4.279c8.559,0,17.117,0,24.606,0C153.51,14.172,153.51,18.451,149.229,18.451z M149.229,28.081
	c-12.839,0-25.677,0-38.516,0c-3.209,0-3.209-4.28,0-4.28c12.839,0,25.677,0,38.516,0C153.51,23.801,153.51,28.081,149.229,28.081z
	 M149.229,38.779c-9.629,0-20.327,0-31.026,0c-3.21,0-3.21-4.279,0-4.279c10.699,0,21.397,0,31.026,0
	C153.51,34.5,153.51,38.779,149.229,38.779z"/>
<path style="fill-rule:evenodd;clip-rule:evenodd;fill:#104760;" d="M5.452,31.079c5.063,5.087,10.141,10.16,15.225,15.225
	c1.866,1.86,4.846,2.2,7.117,0.867c3.433-2.014,3.979-6.585,1.114-9.468c-1.63-1.637-3.264-3.274-4.898-4.907
	c14.427-0.008,37.787-0.025,43.159-0.05c2.634-0.012,4.976-1.883,5.634-4.433c0.993-3.853-1.861-7.466-5.926-7.468
	c-4.182-0.003-31.934,0.015-42.881,0.029c1.55-1.551,3.102-3.1,4.65-4.651c0.236-0.236,0.467-0.476,0.685-0.729
	c1.971-2.299,1.885-5.768-0.194-7.936c-2.43-2.535-6.162-2.524-8.743,0.052c-4.9,4.89-9.791,9.788-14.686,14.684
	c-0.137,0.138-0.271,0.283-0.401,0.428C3.12,25.124,3.166,28.785,5.452,31.079z"/>
</svg>
