<?xml version="1.0" encoding="iso-8859-1"?>
<!-- Generator: Adobe Illustrator 16.0.3, SVG Export Plug-In . SVG Version: 6.00 Build 0)  -->
<!DOCTYPE svg PUBLIC "-//W3C//DTD SVG 1.1//EN" "http://www.w3.org/Graphics/SVG/1.1/DTD/svg11.dtd">
<svg version="1.1" id="Layer_1" xmlns="http://www.w3.org/2000/svg" xmlns:xlink="http://www.w3.org/1999/xlink" x="0px" y="0px"
	 width="120px" height="60px" viewBox="0 0 120 60" style="enable-background:new 0 0 120 60;" xml:space="preserve">
<g>
	<path style="fill:#104760;" d="M65.322,46.635c1.192-1.469,1.279-3.734,2.687-4.998c2.155-1.936,4.841-3.184,6.901-5.248
		c0.527-0.528,0.925-1.118,1.301-1.73c1.156-0.469,2.309-0.941,3.461-1.422c0.899-0.376,1.799-0.754,2.691-1.149
		c0.479-0.213,1.066-0.403,1.471-0.755c0.014-0.008,0.037-0.021,0.074-0.043c0.117-0.067,0.237-0.127,0.357-0.188
		c0.398-0.2,0.803-0.386,1.209-0.574c0.995-0.461,1.992-0.914,2.979-1.4c1.963-0.97,3.544-2.483,5.479-3.522
		c1.829-0.984,3.683-1.307,5.744-1.279c0.791,0.01,1.583,0.037,2.363-0.101c0.472-0.082,0.931-0.314,1.36-0.514
		c1.847-0.854,3.593-1.986,5.285-3.112c0.024-0.018,0.049-0.035,0.069-0.052c0.397-0.062,0.794-0.138,1.181-0.212
		c0.797-0.156,1.73-0.318,2.376-0.844c0.314-0.256,0.358-0.734,0.164-1.066c-0.239-0.41-0.768-0.506-1.189-0.602
		c-1.13-0.256-1.981-0.935-2.943-1.492c0.922-0.068,1.981-0.294,1.581-1.388c-0.333-0.916-1.438-1.521-2.217-2.013
		c-0.582-0.367-1.181-0.711-1.791-1.032c-0.067-0.047-0.146-0.085-0.24-0.11c-1.807-0.469-3.523-1.482-5.187-2.302
		c-1.894-0.933-3.787-1.944-5.78-2.649c-0.658-0.232-1.303-0.229-1.979-0.347c-1.336-0.231-2.641-0.622-3.963-0.921
		c-1.475-0.336-2.975-0.595-4.486-0.6c-1.537-0.004-3.073-0.119-4.602-0.236c-1.387-0.105-2.77-0.234-4.16-0.301
		c-1.238-0.061-2.479-0.065-3.719-0.158c-0.559-0.042-1.119-0.09-1.68-0.143c-0.18-0.018-0.358-0.035-0.539-0.054
		c-0.104-0.011-0.436-0.085-0.059,0c-0.395-0.089-0.797-0.171-1.195-0.251c-4.533-0.906-9.28-1.66-13.884-0.914
		c-4.759,0.772-9.478,1.956-14.282,2.429c-0.391,0.039-0.785,0.067-1.179,0.079c-0.16,0.004-0.317,0.003-0.476-0.002
		c-0.068-0.002-0.138-0.006-0.206-0.012c-0.037-0.002-0.061-0.004-0.076-0.005c0-0.001-0.009-0.002-0.029-0.005
		C37.04,5.2,35.902,5.227,34.737,5.33c-1.282,0.113-2.553,0.309-3.826,0.485c-0.701,0.098-1.532,0.026-2.168,0.366
		c-0.693,0.371-1.253,1.055-1.801,1.602c-0.745,0.74-1.518,1.444-2.432,1.973c-1.092,0.631-2.157,0.688-3.382,0.544
		c-1.396-0.163-2.827-0.033-4.171,0.37c-0.91,0.272-1.747,0.72-2.625,1.068c-0.346,0.137-0.706,0.211-1.048,0.354
		c-0.438,0.186-0.839,0.438-1.233,0.7c-0.972,0.643-1.884,1.37-2.836,2.039c-0.394,0.277-0.796,0.545-1.218,0.778
		c-0.147,0.08-0.257,0.133-0.402,0.182c-0.175,0.059-0.055,0.025-0.286,0.024c-1.225-0.003-2.544,1.375-2.202,2.611
		c0.236,0.857,1.188,1.23,1.971,1.394c0.949,0.196,1.899,0.187,2.851,0.058c1.371-0.187,2.733-0.414,4.101-0.631
		c1.138,0.486,2.455,0.698,3.637,0.991c2.08,0.519,4.165,1.003,6.254,1.473c1.415,0.317,2.854,0.713,4.303,0.84
		c1.827,0.159,3.699,0.055,5.531-0.043c0.985,0.819,1.93,1.694,2.81,2.621c0.564,0.593,1.089,1.179,1.729,1.696
		c0.892,0.717,1.837,1.361,2.793,1.988c2.432,1.596,4.946,3.065,7.428,4.582c1.964,1.2,4.022,2.369,5.832,3.799
		c1.724,1.364,3.144,3.1,4.391,4.898c1.062,1.535,2.934,5.65,2.934,5.65C63.652,46.328,64.748,47.727,65.322,46.635z M88.946,23.529
		c-0.577,0.496-1.476,0.924-2.213,1.285c-1.589,0.779-3.331,1.711-5.077,2.059C81.644,26.875,81.638,27,81.633,27
		c-0.013,0-0.028,0-0.052,0c-0.112,0-0.225-0.104-0.331-0.074c-0.203-0.5-0.31-1.124-0.408-1.642
		c-0.162-0.855,0.012-1.76-0.206-2.602c-0.207-0.808-0.803-1.526-1.437-2.04c-0.034-0.027-0.07-0.061-0.105-0.088
		c0.068-0.021,0.133-0.047,0.195-0.066c0.575-0.187,1.154-0.377,1.725-0.586c1.062-0.391,2.28-0.869,3.061-1.735
		c1.096,0.177,2.199,0.332,3.305,0.381c0.883,0.037,1.762,0.054,2.645,0.122c1.361,0.105,2.721,0.244,4.08,0.401
		c-0.468,0.151-0.933,0.311-1.395,0.485c-0.789,0.301-1.598,0.638-2.287,1.135c-0.793,0.57-1.232,1.292-1.225,2.276
		c0,0.104,0.002,0.207-0.002,0.311C89.165,23.297,89,23.482,88.946,23.529z M89.195,23.291v0.002
		c-0.003,0.004-0.006,0.008-0.008,0.014C89.189,23.301,89.193,23.296,89.195,23.291z M64.11,27.545
		c-0.021-0.43-0.08-0.861-0.084-1.291C64.024,26.107,64,25.959,64,25.814v-0.002c0-0.102,0.077-0.146,0.089-0.273
		c0.074-0.736-0.729-1.599-1.134-2.13c-0.6-0.799-1.226-1.574-1.843-2.362c-0.461-0.586-0.768-0.902-0.716-1.631
		c0.058-0.825,0.419-1.667,0.789-2.395c0.172-0.34,0.371-0.683,0.608-0.981c1.368,0.554,2.694,1.207,4.012,1.87
		c0.712,0.358,1.55,0.665,2.163,1.182c0.992,0.832,2.027,1.741,3.387,1.797c0.014,0,0.007-0.009,0.033,0.029
		c0.098,0.137,0.137,0.294,0.18,0.453c0.129,0.484,0.117,1.006,0.102,1.502c-0.014,0.449-0.062,0.896-0.145,1.337
		c-0.033,0.171-0.072,0.341-0.121,0.508c-0.003,0.011-0.037,0.091-0.042,0.111c-0.04,0.079-0.085,0.156-0.128,0.231
		c-0.551,0.938-1.275,1.788-1.938,2.647c-0.771,0.999-1.554,1.997-2.234,3.062c-0.504,0.79-0.932,1.634-1.418,2.437
		c-0.152,0.247-0.305,0.493-0.457,0.74c-0.392-0.538-0.753-1.111-0.997-1.705c-0.021-0.055-0.069-0.26-0.091-0.319
		c0.013-0.035,0.025-0.071,0.036-0.111c0.098-0.369,0.095-0.778,0.098-1.156C64.24,29.618,64.162,28.58,64.11,27.545z M28.69,21.154
		c-1.383-0.062-2.793-0.461-4.158-0.766c-2.09-0.467-4.172-0.954-6.251-1.465c-0.217-0.055-0.434-0.109-0.651-0.164
		c1.846-0.159,3.703-0.177,5.451-0.854c0.458-0.177,0.904-0.378,1.342-0.591c2.363,0.394,4.584,1.763,6.523,3.078
		c0.365,0.247,0.722,0.504,1.079,0.765C30.913,21.196,29.799,21.204,28.69,21.154z M44.896,29.528
		c-1.868-1.146-3.777-2.285-5.505-3.64c-1.263-0.99-2.266-2.277-3.454-3.356c-0.459-0.414-0.928-0.82-1.405-1.217
		c-0.06-0.082-0.139-0.149-0.239-0.193c-1.286-1.047-2.637-2.015-4.049-2.876c-1.244-0.759-2.576-1.449-3.974-1.907
		c0.876-0.485,1.746-0.978,2.654-1.403c0.017-0.007,0.028-0.014,0.037-0.018c0.011-0.004,0.022-0.008,0.039-0.016
		c0.028-0.01,0.057-0.018,0.084-0.025c0.327,0.078,0.689,0.077,1.021,0.088c1.141,0.037,2.286-0.002,3.426-0.029
		c0.942-0.021,1.884-0.049,2.826-0.061c0.04,0.119,0.074,0.25,0.12,0.393c0.178,0.557,0.338,1.117,0.503,1.678
		c0.305,1.034,0.595,2.084,1.039,3.07c0.127,0.284,0.306,0.58,0.586,0.736c0.419,0.237-0.001-0.026,0.207,0.087
		c0.145,0.079,0.279,0.177,0.414,0.272c0.809,0.572,1.569,1.21,2.354,1.814c0.661,0.51,1.356,1.133,2.152,1.426
		c0.046,0.016,0.078,0.029,0.099,0.039c0.065,0.066,0.09,0.121,0.156,0.222c0.255,0.399,0.448,0.844,0.622,1.284
		c0.312,0.784,0.575,1.603,0.733,2.434c0.032,0.162,0.028,0.146,0.037,0.295c0.002,0.026-0.005,0.118-0.002,0.125
		c-0.012,0.056-0.023,0.109-0.026,0.18c-0.018,0.33,0.128,0.646,0.28,0.932c0.03,0.057,0.06,0.112,0.091,0.168
		C45.444,29.861,45.17,29.695,44.896,29.528z M63.092,46.087c-1.166-2.259-2.981-4.657-4.55-6.633
		c-0.818-1.033-1.719-2.004-2.714-2.872c-1.009-0.881-2.145-1.607-3.267-2.335c-1.035-0.671-2.082-1.322-3.133-1.968
		c-0.033-0.063-0.078-0.126-0.134-0.186c-0.458-0.466-0.896-0.949-1.321-1.443c-0.299-0.35-0.588-0.707-0.85-1.085
		c-0.112-0.161-0.213-0.329-0.303-0.503c-0.012-0.02-0.019-0.034-0.026-0.046c-0.003-0.009-0.006-0.022-0.012-0.046
		c0.153-0.781-0.218-1.748-0.448-2.472c-0.299-0.94-0.657-1.935-1.215-2.756c-0.225-0.329-0.47-0.565-0.838-0.72
		c-0.201-0.084,0.036,0.049-0.164-0.054c-0.173-0.088-0.337-0.198-0.499-0.306c-0.834-0.555-1.611-1.199-2.4-1.816
		c-0.564-0.44-1.17-1.038-1.849-1.322c-0.063-0.104-0.115-0.213-0.159-0.32c-0.206-0.499-0.363-1.02-0.524-1.535
		c-0.293-0.952-0.553-1.918-0.86-2.867c0.794-0.119,1.581-0.385,2.327-0.633c0.111-0.037,0.22-0.075,0.328-0.113
		c1.583,0.314,3.168,0.291,4.777,0.289c0.27-0.002,0.541,0.007,0.809,0.033c0.131,0.012,0.226,0.079,0.23,0.066
		c0.157,0.252,0.265,0.578,0.402,0.831c0.513,0.945,1.073,1.872,1.708,2.742c0.26,0.358,0.535,0.717,0.86,1.021
		c0.128,0.121,0.273,0.232,0.427,0.32c0.082,0.045,0.174,0.078,0.264,0.108c0.04,0.042,0.17,0.153,0.207,0.194
		c0.101,0.115,0.183,0.23,0.275,0.359c0.305,0.428,0.588,0.873,0.877,1.312c0.676,1.023,1.379,2.038,2.201,2.951
		c0.383,0.426,0.807,0.799,1.264,1.144c0.412,0.31,0.891,0.483,1.259,0.849c0.71,0.71,0.938,1.839,1.115,2.785
		c0.137,0.75,0.205,1.509,0.305,2.264c0.078,0.59,0.146,1.21,0.442,1.738c0.664,1.182,1.454,2.307,2.183,3.446
		c0.635,0.989,1.27,1.978,1.907,2.966c0.021,0.042,0.047,0.082,0.077,0.118c0.047,0.073,0.093,0.147,0.14,0.22
		c0.115,0.176,0.051,0.17,0.092,0.418c0.119,0.757,0.199,1.52,0.262,2.283c0.078,0.936,0.967,1.875,0.975,2.816
		C63.464,45.504,63.039,45.926,63.092,46.087z M62.672,37.896c-0.865-1.34-1.725-2.68-2.579-4.025
		c-0.215-0.339-0.429-0.678-0.644-1.018c-0.075-0.122-0.152-0.246-0.228-0.369c-0.085-0.139-0.131-0.229-0.146-0.27
		c-0.284-0.822-0.288-1.768-0.404-2.625c-0.15-1.1-0.369-2.171-0.839-3.183c-0.212-0.452-0.514-0.869-0.866-1.222
		c-0.396-0.394-0.904-0.604-1.357-0.912c-1.543-1.05-2.548-2.896-3.558-4.415c-0.334-0.503-0.677-1.098-1.155-1.478
		c-0.148-0.117-0.257-0.191-0.435-0.255c-0.089-0.032-0.09-0.026-0.081-0.019c-0.003-0.002-0.009-0.006-0.018-0.01
		c-0.149-0.084-0.443-0.438-0.62-0.658c-0.531-0.664-0.969-1.416-1.398-2.148c-0.315-0.543-0.55-1.227-0.928-1.724
		c-0.561-0.737-1.648-0.653-2.477-0.646c-0.458,0.003-0.914,0.007-1.37,0c0.125-0.046,0.25-0.093,0.375-0.138
		c0.96-0.349,2.087-0.822,3.074-0.9c0.751-0.059,1.604,0.317,2.31,0.628c1.041,0.459,2.038,1.015,3.025,1.577
		c0.921,0.524,1.831,1.07,2.756,1.587c0.558,0.312,1.197,0.726,1.838,0.827c0.81,0.131,1.734-0.195,2.511-0.382
		c0.229-0.055,0.459-0.111,0.689-0.167c-0.512,0.861-0.894,1.84-1.086,2.816c-0.189,0.969-0.094,1.771,0.498,2.565
		c0.677,0.915,1.411,1.783,2.103,2.686c0.291,0.381,0.577,0.769,0.838,1.173c0.037,0.055,0.15,0.269,0.185,0.32
		c-0.147,0.773-0.022,1.633,0.019,2.406c0.051,1.01,0.123,2.023,0.098,3.034c-0.003,0.075-0.027,0.397-0.021,0.38
		c-0.004,0.02-0.008,0.041-0.012,0.061c-0.012,0.037-0.047,0.153-0.064,0.205c-0.133,0.345,0.018,0.786,0.146,1.107
		c0.373,0.912,0.945,1.74,1.538,2.522C63.823,36.123,63.25,37.012,62.672,37.896z M66.748,40.857
		c-0.947,0.863-1.205,2.65-2.051,3.624c-0.037-0.747-0.733-2.344-0.814-3.091c-0.048-0.439-0.109-0.877-0.169-1.314
		c-0.039-0.264-0.036-0.62-0.187-0.852c-0.004-0.006-0.008-0.012-0.012-0.018c0.611-0.934,1.216-1.871,1.814-2.811
		c0.242,0.248,0.507,0.463,0.803,0.605c0.012,0.018,0.031,0.045,0.06,0.088c0.083,0.139,0.146,0.289,0.202,0.438
		c0.188,0.486,0.324,0.992,0.453,1.494c0.123,0.482,0.233,0.969,0.334,1.456C67.034,40.602,66.889,40.728,66.748,40.857z
		 M75.533,33.009c-0.303,0.503-0.549,1.03-0.887,1.512c-0.383,0.542-0.882,1.011-1.371,1.452c-1.494,1.34-3.23,2.356-4.848,3.533
		c-0.066-0.289-0.135-0.576-0.206-0.863c-0.216-0.859-0.44-1.905-1.032-2.598c-0.094-0.111-0.212-0.218-0.346-0.275
		c-0.033-0.015-0.062-0.026-0.086-0.038c-0.006-0.005-0.016-0.013-0.039-0.026c-0.012-0.006-0.02-0.012-0.027-0.016
		c-0.01-0.008-0.021-0.02-0.041-0.034c-0.186-0.159-0.357-0.34-0.522-0.528c1.01-1.648,1.921-3.371,3.06-4.934
		c0.762-1.043,1.57-2.048,2.346-3.077c0.498-0.662,1.068-1.354,1.287-2.169c0.254-0.945,0.324-1.986,0.268-2.961
		c-0.059-0.92-0.284-2.047-1.238-2.433c-0.328-0.134-0.699-0.093-1.038-0.204c-0.478-0.155-0.917-0.51-1.3-0.818
		c-0.533-0.431-1.008-0.845-1.619-1.156c-1.477-0.75-2.954-1.505-4.469-2.178c0.998-0.204,2.025-0.384,3.045-0.307
		c1.045,0.078,2.084,0.35,3.099,0.594c2.319,0.556,4.62,1.299,6.981,1.656c0.931,0.142,1.871,0.121,2.805,0.248
		c0.945,0.129,1.89,0.293,2.832,0.458c-0.673,0.396-1.457,0.653-2.152,0.894c-0.562,0.194-1.135,0.366-1.697,0.558
		c-0.399,0.135-0.853,0.269-1.162,0.569c-0.417,0.399-0.258,1.028,0.204,1.305c0.741,0.446,1.487,0.847,1.831,1.705
		c0.171,0.424,0.096,0.855,0.099,1.299c0.003,0.478,0.079,0.958,0.159,1.428c0.109,0.648,0.277,1.326,0.551,1.936
		c-0.854,0.682-1.585,1.535-2.276,2.374C76.936,30.891,76.185,31.921,75.533,33.009z M101.6,22.859
		c-0.623,0.108-1.295,0.049-1.923,0.037c-0.842-0.012-1.679,0.006-2.515,0.121c-2.869,0.397-5.602,2.076-7.766,3.947
		c0,0-0.115,0.084-0.246,0.166c-0.159,0.102-0.323,0.191-0.488,0.283c-0.457,0.252-0.926,0.48-1.395,0.707
		c-0.972,0.471-1.957,0.914-2.934,1.369c-0.371,0.174-0.738,0.346-1.097,0.541c-0.131,0.07-0.241,0.155-0.362,0.247
		c0.162-0.125,0.046-0.033-0.086,0.038c-0.783,0.423-1.627,0.752-2.443,1.102c-0.951,0.404-1.909,0.802-2.866,1.195
		c0.605-0.886,1.272-1.728,1.987-2.529c0.609-0.688,1.294-1.497,2.138-1.908c0.015-0.006-0.02,0.009,0.05,0.003
		c0.146-0.009,0.293-0.035,0.438-0.064c0.338-0.067,0.67-0.175,0.997-0.282c1.796-0.58,3.572-1.338,5.234-2.229
		c1.037-0.558,2.313-1.212,2.303-2.536c-0.002-0.121-0.005-0.243,0.001-0.366c0.002-0.02,0.16-0.036,0.16-0.049l0,0
		C90.8,22.58,91,22.51,91,22.441v-0.002c0-0.012-0.144-0.025-0.133-0.043c0.017-0.033,0.016-0.141,0.032-0.167
		c0.054-0.062,0.073-0.122,0.134-0.18c0.112-0.106,0.146-0.142,0.183-0.169c0.609-0.438,1.313-0.732,2.012-0.996
		c1.382-0.525,2.809-0.916,4.237-1.286c0.072-0.019,0.133-0.045,0.188-0.077c2.754,0.396,5.512,0.993,8.291,1.139
		c-0.676,0.415-1.361,0.815-2.057,1.199C103.177,22.25,102.406,22.718,101.6,22.859z"/>
	<g>
		<g>
			<path style="fill:#FFFFFF;" d="M90.539,39.435l1.428,0.259l-0.639,1.706l5.814,0.669l-7.539-6.963L77.423,26.79
				c2.262-2.184,3.759-2.522,5.128-4.301c2.166,0.989,7.776,2.382,7.776,2.382l0.651-2.751c0,0-0.545-0.567-0.849-0.869
				c-0.563-0.547-1.339-1.294-2.119-2.175l-0.463-0.524c-0.774-0.871-0.884-1.036-1.799-1.468c0,0-1.04-0.559-1.786-0.805
				c0.109-3.761-7.149-7.469-8.347-9.068c-0.126-0.168-0.226-0.209-0.393-0.139c-0.328,0.235,0.146,1.38,1.251,2.951
				c1.057,1.503,3.234,3.851,3.248,5.107c-1.082-0.543-4.265-1.006-5.164-1.139c-0.232,3.133,3.444,4.423,3.444,4.423
				c0.015,1.339-7.513,5.545-7.513,5.545c-9.749-2.65-24.041-1.14-28.434,0.985c-2.413-1.352-4.031-0.459-5.792-1.738
				c-0.443,0.139-0.362,1.738,1.16,2.214c0.84,0.269,3.135,0.296,3.536,2.791c-5.605,1.923-3.869,5.784-14.813,8.825L25.5,38.314
				l-1.666-0.436l-1.085,4.418c0,0,16.395-10.377,31.332-10.377c16.796-0.854,28.025,2.944,33.949,5.951
				C88.029,37.871,89.808,38.796,90.539,39.435z"/>
			<path style="fill:#FFFFFF;" d="M89.832,41.995c0.476,0.087,0.953,0.173,1.428,0.259c-0.617-1.088-1.236-2.178-1.855-3.266
				c-0.211,0.568-0.424,1.137-0.637,1.705c-0.664,1.775,1.003,3.183,2.561,3.361c1.938,0.223,3.879,0.445,5.814,0.669
				c2.342,0.269,3.471-3.063,1.881-4.532c-1.639-1.514-3.277-3.027-4.916-4.54c-1.248-1.149-2.436-2.341-3.838-3.298
				c-3.836-2.619-7.672-5.237-11.505-7.855c0.177,1.39,0.356,2.779,0.535,4.17c1.587-1.5,3.707-2.525,5.13-4.302
				c-1.073,0.139-2.146,0.277-3.219,0.416c2.684,1.192,5.567,1.94,8.412,2.649c1.363,0.339,2.928-0.422,3.265-1.855
				c0.194-0.82,0.388-1.643,0.584-2.465c0.448-1.898-0.636-2.934-1.87-4.132c-1.029-1.001-1.92-2.134-2.943-3.134
				c-1.031-1.008-2.664-1.651-3.989-2.129c0.649,0.854,1.3,1.709,1.948,2.562c-0.011-2.587-1.66-4.697-3.476-6.373
				c-0.923-0.855-1.937-1.613-2.94-2.37c-0.439-0.333-0.888-0.66-1.332-0.991c-0.17-0.125-0.342-0.254-0.511-0.383
				c0.557,0.423-0.085-0.074-0.188-0.161c-0.217-0.181-0.422-0.372-0.609-0.583c-0.766-0.873-1.922-1.215-3.045-0.906
				c-2.299,0.633-2.288,3.12-1.498,4.875c0.636,1.41,1.631,2.619,2.578,3.829c0.271,0.348,0.672,0.88,1.021,1.395
				c0.15,0.224,0.285,0.455,0.418,0.688c0.144,0.293,0.15,0.29,0.018-0.005c0.084,0.31,0.086,0.254,0.015-0.163
				c1.333-0.765,2.663-1.528,3.997-2.293c-1.824-0.841-3.83-1.114-5.802-1.406c-1.733-0.257-3.284,0.685-3.359,2.561
				c-0.136,3.35,2.416,5.914,5.394,6.982c-0.649-0.853-1.301-1.707-1.949-2.56c0.007-0.093,0.346-1.165,0.223-0.956
				c-0.184,0.311,0.494-0.56,0.021-0.063c-0.271,0.284-0.579,0.53-0.884,0.776c0.547-0.438,0.002-0.008-0.096,0.063
				c-0.229,0.168-0.459,0.329-0.693,0.491c-0.422,0.291-0.854,0.571-1.283,0.849c-1.139,0.732-2.303,1.431-3.483,2.092
				c0.681-0.089,1.364-0.179,2.046-0.268c-5.527-1.474-11.399-1.542-17.089-1.209C49.661,20.449,44.8,21,40.716,23
				c0.893,0,1.787,0,2.679,0c-1.271-1-2.501-1.184-3.913-1.363c-0.189-0.026-0.377-0.135-0.566-0.156
				c-0.891-0.104,0.488,0.057-0.375-0.106c-0.568-0.107-0.427-0.097-0.937-0.438c-0.79-0.529-1.884-0.45-2.68-0.011
				c-1.347,0.744-1.66,2.228-1.45,3.63c0.191,1.271,1.093,2.23,2.105,2.936c0.686,0.478,1.556,0.568,2.34,0.78
				c0.135,0.037,0.708,0.28,0.099,0.005c0.119,0.053,0.625,0.43,0.156,0.043c0.489,0.402-0.202-0.412,0.15,0.179
				c-0.243-0.407,0.061,0.353,0.076,0.421c0.617-1.09,1.235-2.176,1.853-3.266c-1.693,0.598-3.135,1.409-4.484,2.596
				c-0.955,0.838-1.773,1.82-2.723,2.665c-0.137,0.122-0.279,0.239-0.42,0.356c-0.504,0.418,0.467-0.344-0.08,0.062
				c-0.349,0.258-0.713,0.493-1.081,0.721c-0.812,0.501-1.892,1.018-2.549,1.279c-0.644,0.258-1.302,0.479-1.96,0.693
				c-0.912,0.297-1.981,0.429-2.686,1.135c-0.49,0.488-0.754,1.205-1.063,1.812c1-0.406,1.999-0.812,2.998-1.219
				c-0.555-0.146-1.109-0.289-1.664-0.435c-1.372-0.356-2.918,0.436-3.268,1.854c-0.362,1.473-0.724,2.945-1.085,4.417
				c-0.535,2.179,1.859,4.288,3.901,2.999c5.915-3.736,12.08-6.381,18.713-8.271c5.596-1.594,10.997-1.901,16.842-1.86
				c5.497,0.038,10.597,0.573,15.876,1.796c2.75,0.637,5.455,1.47,8.08,2.506c0.252,0.101,0.504,0.203,0.755,0.307
				c-0.669-0.277,0.134,0.061,0.261,0.115c0.496,0.219,0.987,0.447,1.473,0.684c0.369,0.179,0.73,0.365,1.09,0.562
				c0.277,0.153,0.551,0.313,0.823,0.474c0.153,0.094,1.128,0.799,0.661,0.412c1.115,0.919,2.657,1.096,3.755,0
				c0.948-0.949,1.118-2.834,0-3.755c-2.746-2.263-6.337-3.601-9.658-4.752c-4.516-1.567-9.208-2.483-13.944-3.072
				c-5.924-0.737-12.051-0.838-17.996-0.312c-5.51,0.487-10.872,1.999-16.005,4.008c-4.61,1.802-9.21,3.927-13.406,6.576
				c1.301,0.999,2.601,1.999,3.902,2.998c0.362-1.473,0.724-2.944,1.085-4.417c-1.09,0.617-2.178,1.236-3.266,1.854
				c0.556,0.146,1.11,0.29,1.665,0.436c1.102,0.287,2.459-0.158,2.999-1.221c0.216-0.426,0.432-0.852,0.648-1.277
				c-0.528,0.406-1.057,0.813-1.586,1.221c3.787-1.071,7.42-2.577,10.337-5.282c0.765-0.711,1.452-1.502,2.221-2.212
				c0.188-0.172,0.385-0.336,0.584-0.496c-0.663,0.53,0.088-0.038,0.251-0.143c0.246-0.156,0.504-0.295,0.766-0.427
				c0.116-0.06,0.703-0.312,0.065-0.046c0.194-0.081,0.39-0.15,0.587-0.221c1.439-0.506,2.153-1.766,1.854-3.266
				c-0.401-2.015-1.768-3.434-3.639-4.168c-0.491-0.192-0.998-0.299-1.511-0.414c-0.356-0.081-0.149-0.084,0.046,0.092
				c0.129,0.13,0.215,0.285,0.253,0.466c-0.017-0.058-0.033-0.368-0.048-0.426C38.847,23.893,38.509,25,37.605,25
				c-0.895,0-1.787,0-2.68,0c1.228,2,2.555,1.289,3.992,1.453c0.91,0.107-0.505,0.026,0.452,0.198
				c0.323,0.059,0.635,0.22,0.948,0.319c0.391,0.127,0.606,0.385,1.034,0.504c0.735,0.202,1.378,0.062,2.045-0.253
				c0.156-0.073,0.651-0.269-0.078,0.032c0.155-0.064,0.314-0.118,0.473-0.177c0.355-0.128,0.717-0.235,1.08-0.343
				c0.865-0.252,1.748-0.443,2.633-0.617c2.269-0.447,3.852-0.606,6.295-0.771c2.562-0.174,5.135-0.188,7.698-0.059
				c2.565,0.127,4.651,0.381,7.133,0.943c1.182,0.268,2.198,0.59,3.345-0.059c0.43-0.244,0.857-0.494,1.285-0.747
				c1.434-0.849,2.852-1.735,4.197-2.725c1.5-1.106,3.045-2.284,3.201-4.285c0.097-1.229-0.893-2.181-1.949-2.561
				c-0.475-0.171,0.743,0.339,0.148,0.059c-0.385-0.182-0.746-0.406-1.096-0.652c0.559,0.396,0.032,0.003-0.068-0.091
				c-0.1-0.096-0.195-0.194-0.287-0.299c0.189,0.266,0.197,0.274,0.027,0.027c-0.081-0.123-0.154-0.25-0.221-0.381
				c0.114,0.295,0.123,0.295,0.022,0c-0.064-0.303-0.073-0.305-0.023-0.006c-0.013-0.174-0.011-0.347,0.001-0.52
				c-1.119,0.854-2.24,1.707-3.361,2.561c0.795,0.117,1.588,0.244,2.38,0.391c0.446,0.082,0.894,0.178,1.335,0.281
				c0.243,0.057,0.48,0.123,0.719,0.191c0.151,0.044,0.792,0.329,0.098,0.008c1.654,0.764,4.172-0.098,3.996-2.293
				c-0.148-1.828-1.152-3.244-2.238-4.654c-0.712-0.922-0.987-1.233-1.6-2.122c-0.259-0.376-0.49-0.771-0.708-1.169
				c-0.151-0.315-0.165-0.333-0.042-0.054c-0.188-0.483-0.008,0.556-0.066,0.711c-0.227,0.39-0.454,0.78-0.682,1.172
				c0.02-0.021,0.038-0.044,0.057-0.065c-0.625,0.26-1.25,0.519-1.876,0.779c0.069-0.008,0.142-0.014,0.212-0.021
				c-0.625-0.258-1.252-0.518-1.877-0.777c0.706,0.619,1.365,1.241,2.119,1.819c0.414,0.316,0.834,0.624,1.253,0.933
				c0.198,0.146,0.395,0.293,0.591,0.439c0.135,0.102,0.27,0.203,0.4,0.305c-0.197-0.154-0.173-0.133,0.072,0.06
				c0.941,0.738,1.836,1.532,2.626,2.429c0.515,0.587-0.275-0.408,0.163,0.207c0.174,0.24,0.318,0.496,0.455,0.758
				c0.325,0.615-0.164-0.505,0.037,0.135c0.066,0.299,0.072,0.258,0.019-0.124c0.013,0.129,0.018,0.26,0.015,0.39
				c0.006,1.251,0.821,2.152,1.947,2.56c0.295,0.105,0.23,0.079,0.653,0.283c0.261,0.126,0.515,0.263,0.776,0.39
				c0.146,0.072,0.287,0.154,0.422,0.243c-0.257-0.208-0.273-0.207-0.045,0.002c0.275,0.268,0.516,0.569,0.77,0.856
				c1.042,1.178,2.18,2.251,3.268,3.385c-0.227-0.861-0.454-1.723-0.682-2.585c-0.217,0.918-0.434,1.835-0.65,2.751
				c1.09-0.617,2.178-1.235,3.267-1.854c-0.989-0.246-1.976-0.512-2.955-0.786c-0.839-0.235-1.679-0.484-2.509-0.747
				c-0.393-0.124-0.781-0.257-1.169-0.395c-0.14-0.049-0.282-0.103-0.421-0.154c-0.663-0.249,0.488,0.225-0.09-0.032
				c-1.01-0.448-2.425-0.573-3.217,0.415c-0.283,0.354-0.586,0.681-0.918,0.989c-0.023,0.021-0.668,0.533-0.25,0.219
				c-0.207,0.156-0.421,0.303-0.633,0.451c-1.163,0.814-2.295,1.666-3.328,2.642c-1.314,1.243-0.831,3.238,0.535,4.171
				c3.777,2.577,7.554,5.155,11.33,7.731c0.246,0.17,0.492,0.338,0.738,0.506c0.449,0.307-0.748-0.638-0.277-0.203
				c0.777,0.718,1.557,1.436,2.333,2.154c1.688,1.558,3.375,3.115,5.063,4.674c0.625-1.511,1.252-3.021,1.875-4.532
				c-1.936-0.224-3.876-0.446-5.814-0.67c0.854,1.121,1.708,2.241,2.561,3.362c0.213-0.569,0.426-1.137,0.639-1.705
				c0.475-1.272-0.52-3.023-1.855-3.268c-0.475-0.086-0.953-0.172-1.428-0.259c-1.422-0.258-2.856,0.368-3.265,1.854
				C87.621,40.029,88.407,41.736,89.832,41.995z"/>
		</g>
		<path style="fill:#FFFFFF;" d="M90.752,39.289l1.428,0.26l-0.639,1.705l5.818,0.67l-7.543-6.963l-12.183-8.315
			c2.261-2.185,3.76-2.521,5.13-4.302c2.165,0.988,7.777,2.383,7.777,2.383l0.649-2.752c0,0-0.544-0.567-0.849-0.869
			c-0.564-0.547-1.339-1.294-2.118-2.175l-0.464-0.523c-0.772-0.872-0.884-1.037-1.799-1.469c0,0-1.037-0.558-1.785-0.806
			c0.107-3.758-7.15-7.467-8.348-9.067c-0.127-0.167-0.225-0.209-0.393-0.138c-0.328,0.235,0.148,1.38,1.254,2.952
			c1.055,1.501,3.232,3.85,3.244,5.106c-1.079-0.544-4.264-1.006-5.164-1.139c-0.232,3.133,3.445,4.422,3.445,4.422
			c0.016,1.338-7.513,5.256-7.513,5.256c-9.749-2.65-24.042-0.85-28.433,1.275c-2.414-1.353-4.031-0.459-5.793-1.738
			c-0.442,0.139-0.362,1.738,1.161,2.212c0.84,0.27,3.135,0.298,3.535,2.792c-5.606,1.924-3.868,5.785-14.812,8.826l-0.648,1.277
			l-1.665-0.436l-1.085,4.419c0,0,16.396-10.378,31.332-10.378c16.795-0.854,28.026,2.945,33.949,5.949
			C88.242,37.725,90.02,38.65,90.752,39.289z"/>
		<path style="fill:#F57F20;" d="M90.637,39.289l1.43,0.26l-0.64,1.705l5.816,0.67l-7.542-6.963l-12.18-8.315
			c2.262-2.185,3.756-2.521,5.127-4.302c2.167,0.988,7.779,2.383,7.779,2.383l0.649-2.752c0,0-0.546-0.567-0.848-0.869
			c-0.567-0.547-1.339-1.294-2.121-2.175l-0.464-0.523c-0.773-0.872-0.885-1.037-1.799-1.469c0,0-1.039-0.558-1.785-0.806
			c0.107-3.758-7.149-7.467-8.346-9.067c-0.126-0.167-0.225-0.209-0.395-0.138c-0.33,0.235,0.148,1.38,1.254,2.952
			c1.055,1.501,3.234,3.85,3.246,5.106c-1.082-0.544-4.265-1.006-5.165-1.139c-0.231,3.133,3.446,4.422,3.446,4.422
			c0.016,1.338-7.514,5.256-7.514,5.256c-9.748-2.65-24.042-0.85-28.434,1.275c-2.413-1.353-4.031-0.459-5.792-1.738
			c-0.443,0.139-0.363,1.738,1.161,2.212c0.839,0.27,3.135,0.298,3.535,2.792c-5.604,1.924-3.867,5.785-14.812,8.826l-0.649,1.277
			l-1.665-0.436l-1.085,4.419c0,0,16.396-10.378,31.333-10.378c16.794-0.854,28.025,2.945,33.948,5.949
			C88.128,37.725,89.906,38.65,90.637,39.289z"/>
		<path style="fill:#FFFFFF;" d="M41.174,24.47c0.943-0.001-2.028-0.206-1.086,0.031c0.942,0.237,1.672,0.759,0.289,0.622
			c-1.383-0.138-0.762,0.374-0.762,0.374s-3.745-0.587-3.027-2.212C37.203,23.419,40.695,24.47,41.174,24.47z"/>
		<path style="fill:#FFFFFF;" d="M80.453,15.139l-4.778-1.248l-0.913,0.324l0.787,1.811l1.573,1.863l1.432,0.816l-7.712,5.356
			l1.468,0.199l6.864-3.845c0,0-0.341-1.92-0.391-2.396c-0.049-0.475,0.33-0.98,0.33-0.98L80.453,15.139z"/>
		<path style="fill:#FFFFFF;" d="M83.72,15.507c0.144,1.528-2.217,3.52-5.044,5.214c-3.25,1.948-6.42,3.764-8.496,3.521
			c4.174,0.989,6.72,2.46,7.6,3.041c0.315-0.385,4.756-4.633,4.803-5.164c0.007-0.062,6.016,2.361,7.959,2.607
			c0.409-0.824,0.391-1.628,0.471-1.994C91.483,20.608,84.31,16.234,83.72,15.507z"/>
		<path style="fill:#104760;" d="M90.476,21.825c0,0-0.354,0.894-1.225,0.718c0.597,0.852,0.843,1.914,0.843,1.914l1.337-1.988
			L90.476,21.825z"/>
		<path style="fill:#104760;" d="M83.572,18.188l0.234,2.013l1.51,0.428c0,0,1.849,0.974,2.646,1.211
			c-0.41-0.165-1.215-1.134-1.914-2.27C85.559,18.603,83.572,18.188,83.572,18.188z"/>
		<path style="fill:#104760;" d="M79.799,16.096l-0.771,1c0,0-1.534-0.423-2.235-1.616C77.888,15.222,79.799,16.096,79.799,16.096z"
			/>
		<g>
			<path style="fill:#FFFFFF;" d="M43.584,32.423c1.977-1.349,1.282-1.106,2.427-2.243c3.123-2.941,4.238-0.111,11.618-0.195
				c6.602-0.074,8.102-0.395,9.848-1.307c2.1-1.178,1.622-0.012,6.979,3.393c-2.748-0.398-4.197-1.373-15.888-1.201
				C46.815,31.041,41.776,33.951,43.584,32.423z"/>
			<path style="fill:#104760;" d="M41.63,33.484c4.563-1.867,3.195-1.436,4.929-3.063c3.046-2.361,3.687,0.567,11.07,0.481
				c6.602-0.074,8.297-0.645,10.042-1.557c1.747-0.912,1.634,0.441,8.896,3.863c-2.864-0.416-6.298-1.594-18-1.423
				C47.31,31.952,47.182,32.157,41.63,33.484z"/>
		</g>
		<path style="fill:#104760;" d="M90.568,40.1c0.477,0.087,0.951,0.174,1.428,0.26c-0.16-0.283-0.322-0.566-0.483-0.85
			c-0.213,0.568-0.425,1.137-0.637,1.706c-0.174,0.462,0.261,0.827,0.665,0.874c1.941,0.223,3.877,0.445,5.818,0.669
			c0.606,0.07,0.9-0.796,0.486-1.179c-1.639-1.514-3.277-3.026-4.914-4.539c-1.121-1.033-2.184-2.132-3.441-2.991
			c-3.837-2.618-7.67-5.237-11.507-7.855c0.048,0.361,0.093,0.723,0.14,1.084c1.621-1.531,3.725-2.549,5.129-4.301
			c-0.277,0.036-0.558,0.071-0.836,0.107c2.521,1.12,5.271,1.787,7.94,2.451c0.356,0.088,0.761-0.108,0.851-0.481
			c0.193-0.822,0.389-1.645,0.581-2.465c0.237-1.007-0.696-1.573-1.364-2.221c-1.027-1.002-1.918-2.134-2.943-3.134
			c-0.785-0.768-2.11-1.258-3.121-1.624c0.17,0.223,0.338,0.445,0.506,0.668c-0.008-2.041-1.486-3.678-2.899-4.984
			c-1.554-1.436-3.351-2.557-4.974-3.905c-0.535-0.444-0.936-1.206-1.738-0.983c-0.892,0.245-0.588,1.407-0.326,1.99
			c0.568,1.258,1.424,2.348,2.27,3.429c0.683,0.874,1.953,2.136,2.047,3.306c0.347-0.198,0.693-0.396,1.039-0.596
			c-1.639-0.757-3.559-0.947-5.329-1.208c-0.452-0.067-0.854,0.179-0.873,0.665c-0.097,2.433,1.774,4.307,3.95,5.088
			c-0.168-0.221-0.338-0.444-0.505-0.665c-0.04,0.496-1.748,1.55-2.228,1.885c-1.137,0.798-2.323,1.527-3.518,2.237
			c-0.381,0.227-0.766,0.451-1.15,0.671c-0.084,0.048-0.168,0.097-0.252,0.142c-0.099,0.057-0.025,0.012,0.224-0.131
			c-0.29-0.078-0.581-0.146-0.87-0.215c-2.102-0.495-4.255-0.772-6.402-0.954c-4.186-0.354-8.426-0.405-12.598,0.075
			C47.782,22.463,44.633,23,41.919,24c0.233,0,0.466,0,0.698,0c-0.931,0-1.879-0.615-2.923-0.748
			c-1.038-0.131-1.977-0.131-2.87-0.729c-0.206-0.137-0.489-0.069-0.697,0.044c-1.342,0.742-0.183,2.618,0.656,3.202
			c0.53,0.369,1.261,0.431,1.871,0.595c1.058,0.284,1.638,0.956,1.852,2.026c0.161-0.283,0.322-0.563,0.482-0.847
			c-1.347,0.475-2.543,1.149-3.617,2.093c-0.955,0.838-1.773,1.82-2.724,2.666c-1.451,1.293-3.201,2.207-4.996,2.924
			c-0.644,0.257-1.302,0.48-1.96,0.695c-0.521,0.168-1.421,0.229-1.818,0.628c-0.352,0.35-0.534,0.978-0.757,1.416
			c0.26-0.106,0.521-0.212,0.781-0.317c-0.556-0.145-1.112-0.29-1.666-0.435c-0.357-0.093-0.759,0.112-0.85,0.481
			c-0.362,1.474-0.724,2.946-1.086,4.418c-0.14,0.567,0.484,1.116,1.015,0.78c5.881-3.714,12.51-6.567,19.184-8.47
			c5.696-1.623,11.465-1.972,17.362-1.932c5.514,0.038,11.026,0.623,16.399,1.867c2.75,0.637,5.456,1.47,8.081,2.506
			c1.991,0.785,4.259,1.682,5.929,3.059c0.68,0.561,1.662-0.411,0.976-0.977c-2.46-2.027-5.819-3.217-8.79-4.248
			c-4.342-1.507-8.867-2.434-13.422-3.001c-5.923-0.736-12.052-0.837-17.997-0.312c-5.323,0.47-10.524,1.998-15.483,3.938
			c-4.453,1.739-8.884,3.82-12.935,6.377c0.338,0.26,0.677,0.521,1.015,0.779c0.362-1.473,0.724-2.945,1.086-4.418
			c-0.283,0.162-0.566,0.322-0.85,0.483c0.555,0.144,1.11,0.288,1.665,0.435c0.288,0.074,0.64-0.042,0.78-0.318
			c0.093-0.184,0.188-0.367,0.28-0.551c0.083-0.164,0.167-0.329,0.25-0.492c0.178-0.354,0.057-0.016,0.1-0.027
			c1.298-0.367,2.581-0.808,3.823-1.338c1.658-0.708,3.197-1.588,4.586-2.738c2.032-1.683,3.419-3.725,6.009-4.639
			c0.374-0.133,0.559-0.458,0.482-0.848c-0.26-1.301-1.021-2.308-2.269-2.797c-0.492-0.192-0.998-0.299-1.51-0.414
			c-0.312-0.069-0.582-0.197-0.82-0.413c-0.112-0.116-0.197-0.151-0.252-0.302C36.885,23.844,37.054,23,36.825,24
			c-0.232,0-0.463,0-0.697,0c0.926,0,1.913,0.711,3,0.838c0.66,0.076,1.29,0.146,1.922,0.351c0.523,0.171,1.002,0.645,1.567,0.377
			c1.433-0.676,3.032-1.026,4.576-1.329c4.752-0.938,9.69-1.149,14.518-0.909c2.573,0.129,5.139,0.442,7.654,1.013
			c0.615,0.139,1.243,0.47,1.83,0.137c0.43-0.244,0.857-0.494,1.285-0.746c1.433-0.85,2.853-1.736,4.196-2.727
			c0.829-0.61,2.14-1.448,2.229-2.589c0.023-0.319-0.233-0.567-0.506-0.666c-1.574-0.564-3.012-1.954-2.938-3.757
			c-0.292,0.223-0.583,0.443-0.875,0.666c1.626,0.24,3.492,0.375,4.999,1.068c0.432,0.199,1.084-0.025,1.04-0.596
			c-0.15-1.844-1.804-3.437-2.878-4.828c-0.658-0.853-1.371-1.798-1.7-2.836c-0.118-0.379-0.878,0.017-0.64,0.316
			c0.08,0.1,0.172,0.188,0.262,0.276c0.237,0.232,0.502,0.438,0.762,0.646c1.378,1.09,2.834,2.074,4.169,3.221
			c1.259,1.081,2.875,2.56,2.886,4.354c0,0.326,0.213,0.559,0.507,0.664c1.406,0.508,2.452,1.164,3.44,2.281
			c1.041,1.176,2.182,2.25,3.269,3.383c-0.06-0.223-0.118-0.447-0.177-0.67c-0.218,0.916-0.435,1.834-0.65,2.75
			c0.282-0.161,0.564-0.321,0.85-0.481c-2.546-0.635-5.211-1.247-7.611-2.313c-0.264-0.115-0.632-0.148-0.838,0.107
			c-1.397,1.748-3.509,2.772-5.128,4.303c-0.343,0.323-0.217,0.84,0.14,1.084c3.775,2.577,7.551,5.155,11.326,7.732
			c0.246,0.168,0.493,0.336,0.741,0.504c0.258,0.177-0.17-0.162,0.118,0.104c0.779,0.72,1.554,1.437,2.332,2.154
			c1.688,1.559,3.377,3.117,5.064,4.676c0.164-0.393,0.324-0.785,0.49-1.179c-1.941-0.223-3.877-0.446-5.818-0.669
			c0.223,0.291,0.442,0.583,0.664,0.873c0.215-0.567,0.428-1.137,0.641-1.704c0.123-0.331-0.137-0.786-0.482-0.849
			c-0.478-0.088-0.953-0.174-1.428-0.261C90.064,38.611,89.693,39.94,90.568,40.1z"/>
		<path style="fill:#104760;" d="M69.923,24.526c1.856,0.323,3.833-0.345,5.524-1.05c1.67-0.699,3.258-1.6,4.771-2.59
			c0.421-0.275,0.285-0.619-0.18-0.668c-0.599-0.062-1.242,0.141-1.74,0.467c-1.034,0.678-2.114,1.278-3.227,1.817
			c-1.082,0.524-2.361,1.104-3.59,0.89c-0.553-0.097-1.292,0.142-1.739,0.467C69.325,24.162,69.46,24.447,69.923,24.526
			L69.923,24.526z"/>
	</g>
	<g>
		<path style="fill:#104760;" d="M18.367,44.13l-0.221,1.085L7.751,57.564c0.352,0.01,0.706,0.018,1.065,0.021
			c0.358,0.007,0.771,0.008,1.241,0.008c0.352,0,0.706-0.006,1.063-0.015c0.359-0.011,0.831-0.04,1.418-0.089
			c0.381-0.04,0.714-0.18,0.997-0.418c0.284-0.238,0.515-0.521,0.691-0.849c0.137-0.248,0.379-0.662,0.726-1.243
			c0.349-0.582,0.625-1.105,0.831-1.572h1.029l-1.045,5.406H2.053l0.263-1.235l10.219-12.184h-1.728
			c-0.85,0-1.458,0.015-1.825,0.046c-0.366,0.028-0.788,0.132-1.267,0.311c-0.331,0.129-0.716,0.494-1.156,1.098
			s-0.816,1.274-1.127,2.016H4.387l0.911-4.735H18.367z"/>
		<path style="fill:#104760;" d="M25.676,57.584h-0.079c-0.23,0.195-0.448,0.375-0.656,0.538c-0.207,0.163-0.468,0.325-0.784,0.489
			c-0.276,0.145-0.566,0.263-0.873,0.357c-0.305,0.094-0.643,0.143-1.012,0.143c-1.143,0-2.003-0.337-2.581-1.01
			c-0.58-0.673-0.868-1.593-0.868-2.762c0-0.898,0.161-1.742,0.481-2.529c0.323-0.788,0.753-1.479,1.293-2.077
			c0.545-0.591,1.182-1.058,1.912-1.403c0.73-0.344,1.499-0.516,2.307-0.516c0.593,0,1.11,0.068,1.553,0.205
			c0.445,0.139,0.808,0.326,1.089,0.562l3.024-0.619l0.137,0.156l-1.452,6.06c-0.052,0.204-0.107,0.458-0.167,0.765
			c-0.059,0.306-0.088,0.537-0.088,0.693c0,0.375,0.085,0.633,0.256,0.774c0.17,0.142,0.466,0.212,0.887,0.212
			c0.184,0,0.406-0.037,0.665-0.108c0.258-0.072,0.441-0.132,0.546-0.177l-0.215,0.887c-0.65,0.256-1.17,0.451-1.561,0.586
			c-0.39,0.135-0.843,0.201-1.354,0.201c-0.677,0-1.216-0.133-1.618-0.399C26.113,58.347,25.833,58.005,25.676,57.584z
			 M26.848,51.334c0-0.144-0.019-0.314-0.058-0.511c-0.04-0.198-0.109-0.364-0.208-0.503c-0.118-0.171-0.272-0.3-0.462-0.389
			c-0.191-0.088-0.429-0.133-0.711-0.133c-0.434,0-0.833,0.156-1.199,0.468c-0.366,0.312-0.689,0.727-0.971,1.245
			c-0.277,0.511-0.495,1.107-0.651,1.785c-0.159,0.68-0.237,1.373-0.237,2.082c0,0.322,0.025,0.621,0.073,0.896
			c0.051,0.276,0.131,0.509,0.242,0.699c0.118,0.202,0.278,0.36,0.479,0.473c0.2,0.111,0.452,0.167,0.755,0.167
			c0.308,0,0.606-0.09,0.892-0.271c0.287-0.18,0.551-0.401,0.796-0.664L26.848,51.334z"/>
		<path style="fill:#104760;" d="M44.427,51.268c0,0.926-0.157,1.865-0.468,2.818c-0.313,0.951-0.75,1.797-1.316,2.531
			c-0.671,0.861-1.413,1.495-2.228,1.902c-0.813,0.408-1.661,0.611-2.542,0.611c-1.168,0-2.099-0.273-2.789-0.818
			c-0.69-0.547-1.035-1.329-1.035-2.348c0-0.316,0.054-0.656,0.158-1.018c0.106-0.361,0.237-0.785,0.395-1.271
			c0.131-0.415,0.253-0.824,0.369-1.229c0.115-0.404,0.173-0.786,0.173-1.149c0-0.354-0.079-0.608-0.237-0.759
			c-0.159-0.152-0.44-0.228-0.847-0.228c-0.211,0-0.426,0.033-0.647,0.099c-0.219,0.064-0.408,0.129-0.566,0.188l0.216-0.887
			c0.533-0.217,1.042-0.402,1.527-0.558c0.486-0.153,0.946-0.231,1.379-0.231c0.782,0,1.385,0.195,1.808,0.587
			c0.424,0.392,0.636,0.877,0.636,1.456c0,0.426-0.059,0.881-0.173,1.36c-0.115,0.479-0.235,0.911-0.359,1.292
			c-0.112,0.343-0.228,0.735-0.35,1.18c-0.121,0.444-0.182,0.798-0.182,1.061c0,0.559,0.134,1.006,0.404,1.34
			c0.269,0.337,0.703,0.504,1.301,0.504c0.894,0,1.668-0.334,2.327-1c0.656-0.666,0.984-1.564,0.984-2.694
			c0-0.112-0.007-0.233-0.019-0.365c-0.013-0.131-0.04-0.279-0.079-0.443c-0.073-0.151-0.213-0.312-0.424-0.481
			c-0.21-0.172-0.387-0.329-0.533-0.474c-0.19-0.19-0.358-0.416-0.502-0.677c-0.146-0.258-0.217-0.596-0.217-1.008
			c0-0.349,0.066-0.631,0.203-0.848c0.134-0.217,0.297-0.395,0.488-0.533c0.157-0.111,0.345-0.199,0.565-0.266
			c0.221-0.065,0.426-0.098,0.617-0.098c0.611,0,1.089,0.217,1.438,0.654C44.253,49.906,44.427,50.506,44.427,51.268z"/>
		<path style="fill:#104760;" d="M53.371,57.584h-0.078c-0.229,0.195-0.448,0.375-0.656,0.538c-0.206,0.163-0.467,0.325-0.782,0.489
			c-0.276,0.145-0.567,0.263-0.873,0.357c-0.307,0.094-0.643,0.143-1.011,0.143c-1.145,0-2.005-0.337-2.583-1.01
			s-0.868-1.593-0.868-2.762c0-0.898,0.162-1.742,0.483-2.529c0.322-0.788,0.753-1.479,1.291-2.077
			c0.546-0.591,1.184-1.058,1.914-1.403c0.729-0.344,1.499-0.516,2.307-0.516c0.594,0,1.11,0.068,1.553,0.205
			c0.444,0.139,0.808,0.326,1.089,0.562l3.023-0.619l0.138,0.156l-1.452,6.06c-0.052,0.204-0.109,0.458-0.167,0.765
			c-0.06,0.306-0.089,0.537-0.089,0.693c0,0.375,0.086,0.633,0.256,0.774c0.171,0.142,0.466,0.212,0.888,0.212
			c0.182,0,0.403-0.037,0.665-0.108c0.258-0.072,0.442-0.132,0.546-0.177l-0.217,0.887c-0.65,0.256-1.169,0.451-1.56,0.586
			c-0.393,0.135-0.843,0.201-1.355,0.201c-0.676,0-1.216-0.133-1.62-0.399C53.81,58.347,53.53,58.005,53.371,57.584z M54.544,51.334
			c0-0.144-0.02-0.314-0.059-0.511c-0.039-0.198-0.108-0.364-0.207-0.503c-0.118-0.171-0.274-0.3-0.465-0.389
			c-0.189-0.088-0.426-0.133-0.71-0.133c-0.433,0-0.832,0.156-1.198,0.468c-0.364,0.312-0.688,0.727-0.971,1.245
			c-0.276,0.511-0.494,1.107-0.651,1.785c-0.158,0.68-0.236,1.373-0.236,2.082c0,0.322,0.023,0.621,0.073,0.896
			c0.049,0.276,0.132,0.509,0.242,0.699c0.119,0.202,0.278,0.36,0.479,0.473c0.201,0.111,0.453,0.167,0.755,0.167
			c0.309,0,0.607-0.09,0.893-0.271c0.286-0.18,0.553-0.401,0.794-0.664L54.544,51.334z"/>
		<path style="fill:#104760;" d="M88.779,57.307l-0.217,0.888c-0.651,0.257-1.172,0.452-1.559,0.587
			c-0.391,0.135-0.839,0.201-1.352,0.201c-0.784,0-1.395-0.194-1.828-0.586c-0.434-0.391-0.651-0.875-0.651-1.455
			c0-0.156,0.008-0.359,0.024-0.604c0.017-0.246,0.072-0.553,0.164-0.922l0.715-2.62c0.072-0.283,0.127-0.537,0.166-0.766
			c0.033-0.225,0.053-0.41,0.053-0.556c0-0.315-0.076-0.562-0.227-0.738s-0.408-0.266-0.77-0.266c-0.222,0-0.538,0.087-0.953,0.261
			c-0.412,0.174-0.873,0.497-1.387,0.97l-1.635,7.114h-3.256l1.4-6.059c0.039-0.185,0.092-0.426,0.154-0.719
			c0.061-0.297,0.095-0.543,0.095-0.74c0-0.375-0.078-0.633-0.234-0.773c-0.154-0.142-0.433-0.212-0.843-0.212
			c-0.209,0-0.426,0.033-0.645,0.099c-0.222,0.064-0.41,0.129-0.567,0.188l0.217-0.887c0.532-0.217,1.042-0.402,1.528-0.558
			c0.486-0.153,0.945-0.231,1.38-0.231c0.775,0,1.356,0.152,1.739,0.458c0.387,0.306,0.639,0.735,0.764,1.286h0.068
			c0.645-0.584,1.31-1.039,1.998-1.365c0.684-0.324,1.414-0.486,2.189-0.486c0.729,0,1.299,0.199,1.709,0.601
			s0.615,0.886,0.615,1.458c0,0.151-0.012,0.363-0.034,0.636c-0.024,0.272-0.077,0.563-0.163,0.872l-0.749,2.769
			c-0.065,0.23-0.124,0.492-0.177,0.788s-0.08,0.519-0.08,0.67c0,0.382,0.084,0.642,0.253,0.779
			c0.165,0.138,0.461,0.207,0.881,0.207c0.198,0,0.422-0.035,0.671-0.104C88.487,57.421,88.668,57.359,88.779,57.307z"/>
		<path style="fill:#104760;" d="M73.849,57.307l-0.218,0.888c-0.651,0.257-1.17,0.452-1.561,0.587
			c-0.387,0.135-0.838,0.201-1.352,0.201c-0.781,0-1.391-0.194-1.825-0.586c-0.435-0.391-0.652-0.875-0.652-1.455
			c0-0.156,0.009-0.359,0.026-0.604c0.016-0.246,0.07-0.553,0.163-0.922l0.712-2.62c0.074-0.283,0.13-0.537,0.166-0.766
			c0.035-0.225,0.054-0.41,0.054-0.556c0-0.315-0.077-0.562-0.228-0.738s-0.406-0.266-0.768-0.266c-0.222,0-0.539,0.087-0.953,0.261
			s-0.875,0.497-1.385,0.97l-1.636,7.114h-3.257l1.401-6.059c0.038-0.185,0.089-0.426,0.153-0.719
			c0.061-0.297,0.094-0.543,0.094-0.74c0-0.375-0.077-0.633-0.234-0.773c-0.152-0.142-0.435-0.212-0.84-0.212
			c-0.211,0-0.428,0.033-0.648,0.099c-0.22,0.064-0.41,0.129-0.564,0.188l0.215-0.887c0.532-0.217,1.042-0.402,1.526-0.558
			c0.489-0.153,0.948-0.231,1.383-0.231c0.776,0,1.354,0.152,1.74,0.458c0.384,0.306,0.638,0.735,0.764,1.286h0.067
			c0.645-0.584,1.309-1.039,1.996-1.365c0.686-0.324,1.415-0.486,2.189-0.486c0.73,0,1.301,0.199,1.71,0.601
			c0.411,0.401,0.614,0.886,0.614,1.458c0,0.151-0.01,0.363-0.031,0.636c-0.024,0.272-0.079,0.563-0.164,0.872l-0.75,2.769
			c-0.064,0.23-0.124,0.492-0.178,0.788c-0.051,0.296-0.078,0.519-0.078,0.67c0,0.382,0.083,0.642,0.252,0.779
			c0.167,0.138,0.46,0.207,0.883,0.207c0.197,0,0.419-0.035,0.67-0.104C73.556,57.421,73.736,57.359,73.849,57.307z"/>
		<path style="fill:#104760;" d="M97.568,57.584h-0.079c-0.231,0.195-0.448,0.375-0.655,0.538c-0.209,0.163-0.469,0.325-0.785,0.489
			c-0.276,0.145-0.566,0.263-0.871,0.357c-0.309,0.094-0.644,0.143-1.012,0.143c-1.145,0-2.005-0.337-2.584-1.01
			c-0.576-0.673-0.866-1.593-0.866-2.762c0-0.898,0.16-1.742,0.483-2.529c0.322-0.788,0.75-1.479,1.291-2.077
			c0.546-0.591,1.184-1.058,1.914-1.403c0.729-0.344,1.496-0.516,2.305-0.516c0.594,0,1.109,0.068,1.554,0.205
			c0.444,0.139,0.808,0.326,1.089,0.562l3.023-0.619l0.139,0.156l-1.453,6.06c-0.051,0.204-0.107,0.458-0.166,0.765
			c-0.059,0.306-0.09,0.537-0.09,0.693c0,0.375,0.087,0.633,0.256,0.774c0.172,0.142,0.466,0.212,0.888,0.212
			c0.183,0,0.405-0.037,0.665-0.108c0.26-0.072,0.441-0.132,0.547-0.177l-0.217,0.887c-0.649,0.256-1.169,0.451-1.561,0.586
			c-0.393,0.135-0.843,0.201-1.352,0.201c-0.68,0-1.219-0.133-1.623-0.399C98.006,58.347,97.725,58.005,97.568,57.584z
			 M98.739,51.334c0-0.144-0.02-0.314-0.058-0.511c-0.04-0.198-0.109-0.364-0.207-0.503c-0.118-0.171-0.273-0.3-0.466-0.389
			c-0.19-0.088-0.425-0.133-0.708-0.133c-0.436,0-0.834,0.156-1.197,0.468c-0.366,0.312-0.689,0.727-0.973,1.245
			c-0.276,0.511-0.494,1.107-0.652,1.785c-0.158,0.68-0.236,1.373-0.236,2.082c0,0.322,0.023,0.621,0.075,0.896
			c0.05,0.276,0.129,0.509,0.241,0.699c0.117,0.202,0.278,0.36,0.479,0.473c0.201,0.111,0.453,0.167,0.756,0.167
			c0.308,0,0.607-0.09,0.893-0.271c0.286-0.18,0.552-0.401,0.794-0.664L98.739,51.334z"/>
		<path style="fill:#104760;" d="M117.747,57.328l-0.216,0.866c-0.65,0.257-1.168,0.452-1.557,0.587
			c-0.387,0.135-0.838,0.201-1.349,0.201c-0.78,0-1.392-0.194-1.826-0.586c-0.438-0.391-0.656-0.875-0.656-1.455
			c0-0.182,0.009-0.387,0.025-0.609s0.073-0.529,0.172-0.917l0.703-2.62c0.071-0.283,0.127-0.537,0.164-0.766
			c0.035-0.225,0.055-0.41,0.055-0.556c0-0.315-0.077-0.562-0.227-0.738c-0.15-0.177-0.407-0.266-0.768-0.266
			c-0.224,0-0.542,0.087-0.955,0.261s-0.874,0.497-1.386,0.97l-1.635,7.114h-3.256l2.9-12.543c0.023-0.111,0.044-0.217,0.059-0.315
			c0.014-0.099,0.02-0.181,0.02-0.246c0-0.237-0.042-0.424-0.117-0.562c-0.081-0.139-0.199-0.25-0.358-0.335
			c-0.157-0.085-0.338-0.145-0.543-0.179c-0.202-0.033-0.438-0.062-0.71-0.089l0.178-0.728l5.188-0.256l0.107,0.156l-1.574,6.82
			h0.067c0.613-0.539,1.247-0.961,1.906-1.267c0.656-0.306,1.363-0.458,2.117-0.458c0.729,0,1.3,0.199,1.712,0.601
			c0.409,0.401,0.615,0.886,0.615,1.458c0,0.151-0.011,0.363-0.035,0.636c-0.023,0.272-0.077,0.563-0.161,0.872l-0.75,2.769
			c-0.065,0.23-0.123,0.492-0.178,0.788c-0.053,0.296-0.08,0.519-0.08,0.67c0,0.382,0.085,0.645,0.254,0.789
			c0.166,0.145,0.461,0.217,0.881,0.217c0.196,0,0.421-0.034,0.67-0.104C117.455,57.44,117.637,57.381,117.747,57.328z"/>
	</g>
</g>
</svg>
