<?xml version="1.0" encoding="utf-8"?>
<!-- Generator: Adobe Illustrator 16.0.3, SVG Export Plug-In . SVG Version: 6.00 Build 0)  -->
<!DOCTYPE svg PUBLIC "-//W3C//DTD SVG 1.1//EN" "http://www.w3.org/Graphics/SVG/1.1/DTD/svg11.dtd">
<svg version="1.1" id="Layer_1" xmlns="http://www.w3.org/2000/svg" xmlns:xlink="http://www.w3.org/1999/xlink" x="0px" y="0px"
	 width="82.5px" height="35.357px" viewBox="1 0 82.5 35.357" enable-background="new 1 0 82.5 35.357" xml:space="preserve">
<text transform="matrix(0.8733 -0.4873 0.4873 0.8733 7.8848 31.7925)" fill="#FFFFFF" font-family="'Ubuntu-Bold'" font-size="11.067" letter-spacing="1">------</text>
<text transform="matrix(-0.8733 -0.4873 -0.4873 0.8733 74.9316 31.792)" fill="#FFFFFF" font-family="'Ubuntu-Bold'" font-size="11.067" letter-spacing="1">------</text>
<g>
	<g>
		<path fill="#104760" d="M40.526,8.953c-0.585,0.192-1.095,0.463-1.461,0.953c-0.152,0.204-0.288,0.418-0.439,0.623
			c-0.559,0.755-1.381,1.053-2.275,0.834c-0.127-0.031-0.202-0.088-0.244-0.22c-0.268-0.833-0.551-1.661-0.817-2.493
			c-0.111-0.349-0.085-0.364,0.278-0.371c0.279-0.006,0.559-0.021,0.838-0.042c0.573-0.042,1.029-0.296,1.398-0.741
			c0.515-0.619,1.229-0.871,1.994-1.017c0.108-0.021,0.131,0.044,0.162,0.12c0.302,0.754,0.605,1.509,0.909,2.263
			c0.019,0.046,0.04,0.092,0.072,0.168c0.173-0.429,0.334-0.83,0.495-1.23c0.159-0.394,0.323-0.786,0.471-1.184
			c0.05-0.134,0.116-0.146,0.243-0.124c0.836,0.148,1.553,0.509,2.096,1.175c0.286,0.351,0.671,0.498,1.098,0.546
			c0.354,0.04,0.712,0.048,1.069,0.065c0.228,0.011,0.27,0.044,0.203,0.261c-0.191,0.628-0.396,1.253-0.598,1.878
			c-0.077,0.236-0.17,0.467-0.24,0.706c-0.041,0.143-0.12,0.21-0.262,0.241c-0.913,0.201-1.657-0.066-2.232-0.798
			c-0.15-0.191-0.281-0.398-0.42-0.597c-0.368-0.527-0.897-0.814-1.51-1.018c-0.071,0.181-0.146,0.354-0.207,0.533
			c-0.014,0.04,0.015,0.099,0.033,0.146c0.284,0.712,0.57,1.423,0.855,2.134c0.023,0.057,0.044,0.114,0.072,0.186
			c-0.118,0.029-0.226,0.056-0.341,0.084c-0.274-0.681-0.542-1.348-0.823-2.044c-0.048,0.109-0.088,0.194-0.123,0.281
			c-0.209,0.519-0.416,1.039-0.625,1.558c-0.094,0.233-0.044,0.211-0.294,0.155c-0.039-0.009-0.078-0.024-0.129-0.041
			c0.178-0.444,0.353-0.88,0.528-1.316c0.129-0.322,0.254-0.646,0.39-0.965c0.046-0.107,0.055-0.2,0.001-0.307
			C40.628,9.233,40.585,9.1,40.526,8.953z M37.871,9.287c0.356-0.168,0.705-0.332,1.06-0.5c-0.162-0.343-0.313-0.666-0.47-0.999
			c-0.365,0.171-0.719,0.337-1.078,0.507C37.548,8.631,37.707,8.955,37.871,9.287z M42.947,8.788
			c0.359,0.169,0.705,0.332,1.06,0.499c0.165-0.333,0.324-0.657,0.489-0.992c-0.362-0.169-0.715-0.335-1.079-0.506
			C43.259,8.125,43.108,8.447,42.947,8.788z M44.009,9.291c-0.149,0.319-0.289,0.616-0.432,0.921
			c0.388,0.182,0.76,0.357,1.141,0.535c0.141-0.303,0.276-0.591,0.414-0.885C44.752,9.668,44.389,9.484,44.009,9.291z
			 M38.301,10.211c-0.147-0.312-0.287-0.61-0.432-0.92c-0.379,0.193-0.748,0.381-1.124,0.573c0.145,0.306,0.279,0.589,0.417,0.883
			C37.546,10.566,37.917,10.392,38.301,10.211z M36.214,8.942c-0.196,0.091-0.38,0.178-0.573,0.269
			c0.1,0.299,0.196,0.586,0.296,0.887c0.229-0.108,0.446-0.21,0.671-0.316C36.477,9.501,36.352,9.236,36.214,8.942z M45.942,10.098
			c0.095-0.284,0.187-0.558,0.274-0.833c0.007-0.021-0.019-0.071-0.042-0.082c-0.165-0.083-0.333-0.158-0.51-0.241
			c-0.134,0.287-0.26,0.556-0.393,0.84C45.498,9.89,45.711,9.99,45.942,10.098z M40.332,8.8c-0.07-0.147-0.145-0.303-0.222-0.466
			c-0.331,0.156-0.649,0.305-0.978,0.46c0.083,0.179,0.164,0.35,0.237,0.507C39.692,9.133,40.002,8.972,40.332,8.8z M42.748,8.794
			c-0.334-0.157-0.651-0.306-0.981-0.46c-0.078,0.167-0.152,0.323-0.219,0.467c0.33,0.171,0.64,0.333,0.961,0.5
			C42.583,9.144,42.661,8.978,42.748,8.794z M43.375,7.667c0.068-0.147,0.127-0.276,0.188-0.41c-0.324-0.25-0.676-0.397-1.06-0.494
			c-0.065,0.142-0.124,0.271-0.186,0.406C42.677,7.34,43.018,7.5,43.375,7.667z M39.565,7.169c-0.067-0.143-0.128-0.272-0.192-0.406
			c-0.39,0.107-0.751,0.247-1.059,0.501c0.068,0.143,0.13,0.271,0.194,0.402C38.865,7.498,39.207,7.338,39.565,7.169z M44.615,8.229
			c-0.003,0.005-0.006,0.011-0.01,0.016c0.322,0.151,0.645,0.303,0.975,0.458c0.044-0.096,0.08-0.174,0.109-0.238
			C45.324,8.386,44.97,8.308,44.615,8.229z M37.267,8.248c-0.003-0.005-0.006-0.011-0.01-0.016
			c-0.353,0.078-0.706,0.155-1.069,0.234c0.033,0.07,0.069,0.148,0.112,0.237C36.632,8.547,36.949,8.397,37.267,8.248z
			 M44.592,11.229c0.243,0,0.45,0,0.657,0c0.001-0.011,0.003-0.022,0.004-0.033c-0.174-0.081-0.348-0.163-0.53-0.248
			C44.68,11.041,44.644,11.119,44.592,11.229z M37.287,11.229c-0.056-0.117-0.093-0.194-0.134-0.281
			c-0.185,0.088-0.361,0.171-0.537,0.255c0.004,0.009,0.008,0.018,0.012,0.026C36.835,11.229,37.042,11.229,37.287,11.229z"/>
		<path fill="#F57F20" d="M37.871,9.287c-0.164-0.332-0.323-0.656-0.488-0.992c0.359-0.169,0.713-0.335,1.078-0.507
			c0.157,0.333,0.309,0.655,0.47,0.999C38.575,8.955,38.227,9.119,37.871,9.287z"/>
		<path fill="#F57F20" d="M42.947,8.788c0.161-0.341,0.312-0.663,0.471-1c0.363,0.171,0.717,0.337,1.079,0.506
			c-0.165,0.335-0.325,0.659-0.489,0.992C43.652,9.12,43.307,8.958,42.947,8.788z"/>
		<path fill="#F57F20" d="M44.009,9.291c0.38,0.193,0.744,0.377,1.123,0.57c-0.138,0.294-0.273,0.583-0.414,0.886
			c-0.381-0.178-0.753-0.353-1.141-0.535C43.72,9.907,43.86,9.609,44.009,9.291z"/>
		<path fill="#F57F20" d="M38.301,10.211c-0.384,0.181-0.755,0.355-1.139,0.536c-0.139-0.294-0.272-0.578-0.417-0.883
			c0.375-0.191,0.745-0.38,1.124-0.573C38.015,9.602,38.154,9.899,38.301,10.211z"/>
		<path fill="#F57F20" d="M36.214,8.942c0.138,0.293,0.263,0.559,0.395,0.84c-0.225,0.106-0.442,0.208-0.671,0.316
			c-0.1-0.301-0.196-0.588-0.296-0.888C35.834,9.121,36.019,9.034,36.214,8.942z"/>
		<path fill="#F57F20" d="M45.942,10.098c-0.231-0.108-0.444-0.208-0.671-0.316c0.133-0.283,0.259-0.553,0.393-0.839
			c0.177,0.083,0.345,0.158,0.51,0.24c0.023,0.011,0.049,0.061,0.042,0.083C46.129,9.541,46.037,9.814,45.942,10.098z"/>
		<path fill="#F57F20" d="M40.332,8.8c-0.33,0.171-0.64,0.333-0.963,0.501c-0.073-0.157-0.153-0.329-0.237-0.507
			c0.329-0.155,0.647-0.304,0.978-0.46C40.188,8.497,40.262,8.653,40.332,8.8z"/>
		<path fill="#F57F20" d="M42.748,8.794c-0.087,0.183-0.166,0.35-0.239,0.506c-0.322-0.168-0.632-0.329-0.961-0.5
			c0.067-0.143,0.141-0.299,0.219-0.466C42.097,8.489,42.414,8.637,42.748,8.794z"/>
		<path fill="#F57F20" d="M43.375,7.667C43.018,7.5,42.677,7.34,42.317,7.17c0.062-0.135,0.121-0.265,0.186-0.406
			c0.384,0.097,0.736,0.244,1.06,0.494C43.501,7.391,43.443,7.521,43.375,7.667z"/>
		<path fill="#F57F20" d="M39.565,7.169c-0.359,0.169-0.7,0.329-1.057,0.497c-0.063-0.131-0.125-0.259-0.194-0.402
			c0.309-0.255,0.669-0.395,1.059-0.501C39.437,6.897,39.498,7.026,39.565,7.169z"/>
		<path fill="#F57F20" d="M44.615,8.229c0.354,0.078,0.708,0.156,1.074,0.236c-0.029,0.064-0.065,0.142-0.109,0.238
			c-0.331-0.155-0.653-0.307-0.975-0.458C44.609,8.24,44.612,8.235,44.615,8.229z"/>
		<path fill="#F57F20" d="M37.267,8.248c-0.317,0.15-0.635,0.3-0.966,0.456c-0.042-0.089-0.079-0.167-0.112-0.237
			c0.363-0.08,0.716-0.157,1.069-0.234C37.261,8.237,37.264,8.242,37.267,8.248z"/>
		<path fill="#F57F20" d="M44.592,11.229c0.052-0.11,0.087-0.188,0.131-0.28c0.182,0.085,0.356,0.167,0.53,0.248
			c-0.001,0.011-0.003,0.022-0.004,0.033C45.042,11.229,44.835,11.229,44.592,11.229z"/>
		<path fill="#F57F20" d="M37.287,11.229c-0.245,0-0.452,0-0.659,0c-0.004-0.009-0.008-0.018-0.012-0.026
			c0.176-0.083,0.352-0.167,0.537-0.255C37.194,11.035,37.231,11.113,37.287,11.229z"/>
	</g>
	<path fill="#104760" d="M40.962,20.687c-0.074-0.075-0.129-0.129-0.183-0.183c-1.861-1.861-3.723-3.722-5.583-5.583
		c-2.807-2.809-3.184-7.216-0.896-10.464c2.596-3.686,7.653-4.558,11.366-1.96c3.668,2.566,4.561,7.711,1.959,11.347
		c-0.284,0.396-0.602,0.772-0.945,1.119c-1.833,1.849-3.678,3.686-5.519,5.527C41.102,20.548,41.042,20.607,40.962,20.687z
		 M36.239,13.862c2.59,2.604,6.8,2.617,9.42,0.026c2.618-2.588,2.633-6.811,0.034-9.436c-2.59-2.616-6.815-2.627-9.436-0.026
		C33.644,7.021,33.635,11.244,36.239,13.862z"/>
</g>
<path fill="#FFFFFF" d="M42.327,16.471l-0.034,0.167l-1.599,1.898c0.054,0.001,0.108,0.003,0.164,0.003
	c0.055,0.001,0.119,0.001,0.191,0.001c0.054,0,0.108-0.001,0.163-0.002c0.055-0.002,0.127-0.006,0.218-0.014
	c0.058-0.005,0.11-0.027,0.153-0.063c0.043-0.037,0.079-0.081,0.106-0.131c0.021-0.038,0.059-0.102,0.112-0.191
	s0.096-0.17,0.127-0.241h0.158l-0.161,0.831h-2.108l0.04-0.19l1.571-1.873h-0.266c-0.13,0-0.224,0.002-0.28,0.006
	c-0.056,0.005-0.121,0.021-0.195,0.048c-0.051,0.02-0.11,0.076-0.178,0.168c-0.067,0.093-0.125,0.196-0.173,0.31h-0.161l0.14-0.728
	H42.327L42.327,16.471z"/>
</svg>
