<?xml version="1.0" encoding="iso-8859-1"?>
<!-- Generator: Adobe Illustrator 16.0.0, SVG Export Plug-In . SVG Version: 6.00 Build 0)  -->
<!DOCTYPE svg PUBLIC "-//W3C//DTD SVG 1.1//EN" "http://www.w3.org/Graphics/SVG/1.1/DTD/svg11.dtd">
<svg version="1.1" id="Layer_1" xmlns="http://www.w3.org/2000/svg" xmlns:xlink="http://www.w3.org/1999/xlink" x="0px" y="0px"
	 width="125px" height="100px" viewBox="0 0 125 100" style="enable-background:new 0 0 125 100;" xml:space="preserve">
<g>
	<path style="fill-rule:evenodd;clip-rule:evenodd;fill:#F57F20;" d="M54.212,96.399c-1.141-2.759-2.259-5.457-3.37-8.159
		c-3.29-8-6.567-16.004-9.884-23.993c-0.306-0.737-0.24-1.194,0.383-1.692c1.415-1.131,2.784-2.318,4.182-3.491
		c3.702,8.967,7.519,18.212,11.374,27.554c0.976-0.625,1.901-1.217,2.824-1.812c8.138-5.251,17.029-7.681,26.722-7.306
		c4.705,0.182,9.422,0.254,14.129,0.161c5.438-0.108,10.633-1.467,15.615-3.627c0.174-0.075,0.35-0.141,0.648-0.26
		c0.678,1.736,1.344,3.438,2.064,5.283c-0.855,0.411-1.691,0.841-2.549,1.223c-5.809,2.583-11.934,3.505-18.24,3.444
		c-4.807-0.045-9.613-0.187-14.42-0.157c-9.633,0.06-18.139,3.259-25.532,9.421C56.847,94.083,55.573,95.223,54.212,96.399z"/>
	<path style="fill-rule:evenodd;clip-rule:evenodd;fill:#F57F20;" d="M107.781,39.149c-0.244,0.12-0.359,0.17-0.467,0.231
		c-4.9,2.852-10.201,4.535-15.834,4.85c-5.014,0.281-10.051,0.168-15.078,0.221c-3.279,0.034-6.564-0.078-9.834,0.106
		c-0.836,0.048-1.66,0.121-2.479,0.222c1.238,0.725,2.449,1.501,3.631,2.354c2.918,2.104,5.139,4.773,6.602,7.934
		c1.402,3.028,1.125,6.1-0.803,8.881c-1.105,1.597-3.199,3.399-7.008,3.399c-0.385,0-0.791-0.019-1.213-0.058
		c-4.083-0.38-8.02-1.386-11.724-2.988c1.958,4.709,3.909,9.42,5.865,14.129c0.105,0.253,0.243,0.491,0.37,0.746
		c0.154-0.078,0.246-0.11,0.321-0.166c4.375-3.248,9.339-4.973,14.689-5.73c5.449-0.772,10.926-0.625,16.4-0.538
		c4.842,0.076,9.682,0.107,14.486-0.655c4.881-0.774,9.42-2.394,13.479-5.491C115.371,57.412,111.582,48.297,107.781,39.149z
		 M88.547,64.118c0.121,0.409,0.227,0.765,0.357,1.208c-0.613,0.094-1.164,0.179-1.828,0.28c-0.113-1.169-0.934-1.263-1.838-1.221
		c-0.031,0.002-0.064-0.003-0.096-0.005c-1.869-0.186-2.148-0.554-1.875-2.498c0.686,0.076,1.371,0.193,2.061,0.218
		c0.5,0.017,1.018-0.039,1.504-0.162c0.227-0.058,0.561-0.357,0.553-0.533c-0.012-0.254-0.244-0.636-0.469-0.714
		c-0.686-0.235-1.418-0.328-2.121-0.521s-1.426-0.36-2.076-0.675c-1.158-0.559-1.945-1.481-1.98-2.819
		c-0.031-1.228,0.746-1.972,1.855-2.475c-0.119-0.432-0.23-0.842-0.355-1.299c0.459-0.073,0.863-0.2,1.262-0.183
		c0.248,0.011,0.658,0.201,0.697,0.379c0.162,0.713,0.629,0.756,1.207,0.743c0.6-0.013,1.201,0.033,1.855,0.056
		c0.125,0.78,0.232,1.46,0.346,2.162c-0.92-0.031-1.773-0.133-2.613-0.058c-0.406,0.036-0.787,0.4-1.18,0.616
		c0.336,0.292,0.623,0.713,1.012,0.853c1.016,0.364,2.094,0.55,3.107,0.909c1.18,0.416,2.137,1.135,2.553,2.394
		C90.977,62.259,90.461,63.17,88.547,64.118z"/>
	<g>
		<path style="fill-rule:evenodd;clip-rule:evenodd;fill:#104760;" d="M55.527,43.367c-3.404-1.58-6.173-3.892-8.262-7.025
			c-0.401-0.602-0.487-0.971,0.161-1.484c0.844-0.669,1.535-1.527,2.358-2.227c0.282-0.24,0.785-0.386,1.152-0.333
			c2.515,0.352,5.022,0.751,7.523,1.187c0.3,0.053,0.617,0.362,0.809,0.636c1.237,1.771,2.425,3.58,3.676,5.343
			c0.184,0.258,0.616,0.479,0.936,0.48c4.428,0.033,8.857,0.026,13.287,0.024c0.117,0,0.234-0.045,0.555-0.108
			c-0.881-1.947-1.648-3.859-2.592-5.681c-2.078-4.014-4.209-8.002-6.393-11.958c-1.318-2.392-3.65-3.579-6.115-4.275
			c-4.334-1.226-8.723-2.272-13.121-3.254c-7.645-1.706-15.229-3.574-22.281-7.114c-1.734-0.871-3.421-1.839-5.164-2.691
			c-3.875-1.897-5.248-1.96-8.712,1.929c-4.205,4.723-6.79,10.349-7.967,16.571c-0.22,1.163-0.145,2.403-0.062,3.598
			c0.097,1.381,1.113,2.101,2.199,2.802c1.785,1.151,3.642,2.258,5.2,3.677c2.788,2.538,4.813,5.709,6.297,9.15
			c1.587,3.681,4.277,6.081,7.843,7.679c3.687,1.651,7.565,2.624,11.531,3.229c2.479,0.38,4.662,1.276,6.752,2.663
			c2.805,1.86,5.643,3.741,8.674,5.172c3.474,1.639,7.227,2.654,11.078,3.014c2.295,0.213,4.504-0.261,5.932-2.321
			c1.379-1.989,1.641-4.129,0.586-6.404c-1.236-2.673-3.066-4.82-5.439-6.53C62.722,46.772,59.138,45.043,55.527,43.367"/>
	</g>
</g>
</svg>
