<?xml version="1.0" encoding="iso-8859-1"?>
<!-- Generator: Adobe Illustrator 16.0.0, SVG Export Plug-In . SVG Version: 6.00 Build 0)  -->
<!DOCTYPE svg PUBLIC "-//W3C//DTD SVG 1.1//EN" "http://www.w3.org/Graphics/SVG/1.1/DTD/svg11.dtd">
<svg version="1.1" id="Layer_1" xmlns="http://www.w3.org/2000/svg" xmlns:xlink="http://www.w3.org/1999/xlink" x="0px" y="0px"
	 width="85px" height="100px" viewBox="0 0 85 100" style="enable-background:new 0 0 85 100;" xml:space="preserve">
<g>
	<g>
		<path style="fill:#104760;" d="M29.109,94.521c0.062,0,0.124-0.001,0.186-0.001c0.062,0,0.124,0.001,0.187,0.001H29.109z"/>
		<path style="fill:#104760;" d="M14.553,90.74c1.234-0.424,2.5-0.794,3.781-1.027c1.666-0.307,3.359-0.464,5.251-0.712h11.418
			c1.891,0.248,3.584,0.405,5.25,0.712c1.282,0.233,2.548,0.604,3.782,1.027c0.384,0.13,0.903,0.644,0.887,0.958
			c-0.017,0.338-0.535,0.771-0.931,0.945c-0.753,0.331-1.562,0.571-2.371,0.74c-4.077,0.854-8.198,1.15-12.327,1.136
			c-4.128,0.015-8.25-0.281-12.327-1.136c-0.809-0.169-1.617-0.409-2.37-0.74c-0.396-0.174-0.915-0.607-0.931-0.945
			C13.65,91.384,14.168,90.87,14.553,90.74z"/>
	</g>
	<path style="fill:#F57F20;" d="M11.793,9.821c3.081-3.627,9.401-2.98,11.391,1.251c-0.263,0.072-0.52,0.143-0.779,0.215
		c1.054,3.499-0.125,7.161-2.562,8.425c-2.16,1.118-4.746,0.838-6.2-0.814c0,0-0.439-0.743-0.609-1.285
		c-0.344,0.063-0.687,0.178-1.007,0.316c-0.936,0.409-1.317-0.02-1.603-0.87C9.523,14.376,9.983,11.95,11.793,9.821z"/>
	<path style="fill-rule:evenodd;clip-rule:evenodd;fill:#F57F20;" d="M9.184,50.164c5.523,1.818,11.033,3.675,16.541,5.541
		c0.429,0.146,0.905,0.408,1.161,0.761c1.284,1.766,2.501,3.579,3.823,5.492c-7.822,0.083-13.262,3.519-15.109,11.167
		c-1.584,6.559,1.121,11.688,6.676,15.472c5.519,3.084,12.944,1.112,15.374-0.831c6.009-4.404,7.684-12.283,3.973-18.71
		c-1.028-1.78-0.969-2.522,0.542-3.962c0.839-0.801,1.237-1.709,1.444-2.839c1.372-7.485,2.804-14.96,4.223-22.436
		c0.039-0.21,0.131-0.408,0.236-0.727c0.714,0.67,1.361,1.277,2.107,1.976c-0.438,9.642,3.578,15.615,11.619,17.096
		c6.669,1.227,13.461-2.827,15.755-9.402c2.312-6.624-0.638-13.97-6.891-17.212c-6.058-3.142-14.229-1.739-18.538,4.969
		c-1.1,0.153-1.967,0.272-2.836,0.395c-0.039,0.006-0.092,0.043-0.118,0.027c-1.403-0.797-2.837-1.55-4.196-2.418
		c-0.811-0.515-1.037-3.189-0.473-4.414c0.592-1.289,1.192-2.576,1.811-3.854c0.835-1.729-0.293-3.565-2.278-3.543
		c-4.552,0.052-9.102,0.171-13.654,0.273c-3.062,0.07-6.124,0.179-9.188,0.207c-0.403,0.004-0.915-0.27-1.199-0.576
		c-1.606-1.733-3.602-2.366-5.836-1.881c-2.271,0.496-3.473,2.122-4.057,4.351c-1.573,6.006-3.238,11.986-4.843,17.983
		C4.318,46.559,5.734,49.027,9.184,50.164z M53.416,41.926c0.239,0.069,0.487,0.129,0.728,0.212
		c3.019,1.031,6.029,2.097,9.067,3.069c0.504,0.162,1.281,0.105,1.66-0.193c0.266-0.21,0.237-1.085,0.034-1.519
		c-0.249-0.525-0.74-1.068-1.263-1.31c-2.924-1.363-5.887-2.637-8.848-3.945c2.797-4.921,9.34-6.645,14.562-3.932
		c5.258,2.729,7.414,9.283,4.826,14.664c-2.619,5.447-9.038,7.803-14.579,5.352C54.766,52.184,51.734,46.152,53.416,41.926z
		 M44.002,27.735c-0.406,2.408-0.788,2.821-3.047,3.339c-1.741-2.496-4.912-1.825-7.438-3.339
		C37.203,27.735,40.597,27.735,44.002,27.735z M39.401,64.493c-0.529-0.754-1.009-1.542-1.591-2.244
		c-0.61-0.733-0.636-1.399-0.243-2.268c1.335-2.947,2.591-5.931,3.876-8.9c0.985-2.272,1.969-4.548,2.954-6.82
		c0.167,0.258,0.199,0.466,0.163,0.662c-0.995,5.243-2.038,10.477-2.975,15.73C41.313,62.178,40.924,63.534,39.401,64.493z
		 M32.645,65.66c-1.369,3.169-2.704,6.252-4.026,9.339c-0.309,0.721-0.729,1.509,0.152,2.115c0.866,0.597,1.6,0.347,2.303-0.417
		c1.57-1.707,3.208-3.352,4.805-5.034c1.64-1.729,3.24-1.413,4.001,0.856c0.289,0.861,0.476,1.776,0.568,2.682
		c0.61,6.015-3.575,11.199-9.722,12.093c-5.65,0.821-11.224-3.259-12.32-9.02c-1.09-5.728,2.56-11.454,8.228-12.861
		C28.612,64.922,30.589,64.867,32.645,65.66z M32.702,71.345c0.559-1.304,1.081-2.52,1.715-4c0.398,0.576,0.689,0.997,1.083,1.567
		C34.585,69.707,33.704,70.475,32.702,71.345z M16.029,46.055c1.538-5.721,3.046-11.326,4.593-17.074
		c0.771,0.208,1.356,0.362,1.94,0.524c5.009,1.399,10.019,2.794,15.026,4.204c1.038,0.293,1.936,0.244,2.791-0.551
		c0.63-0.585,1.42-0.998,2.14-1.487c0.112,0.127,0.226,0.257,0.34,0.385c-0.219,0.55-0.313,1.21-0.681,1.629
		c-0.842,0.965-0.447,1.568,0.418,2.12c0.761,0.485,1.541,0.943,2.333,1.426c-3.131,7.25-6.21,14.376-9.368,21.686
		c-0.834-1.188-1.563-2.217-2.281-3.252c-4.12-5.949-2.701-4.614-9.152-6.87c-0.288-0.101-0.583-0.189-0.872-0.286
		C20.865,47.697,18.475,46.885,16.029,46.055z"/>
</g>
</svg>
