<?xml version="1.0" encoding="iso-8859-1"?>
<!-- Generator: Adobe Illustrator 16.0.3, SVG Export Plug-In . SVG Version: 6.00 Build 0)  -->
<!DOCTYPE svg PUBLIC "-//W3C//DTD SVG 1.1//EN" "http://www.w3.org/Graphics/SVG/1.1/DTD/svg11.dtd">
<svg version="1.1" id="Layer_1" xmlns="http://www.w3.org/2000/svg" xmlns:xlink="http://www.w3.org/1999/xlink" x="0px" y="0px"
	 width="110px" height="110px" viewBox="0 0 110 110" style="enable-background:new 0 0 110 110;" xml:space="preserve">
<g>
	<path style="fill-rule:evenodd;clip-rule:evenodd;fill:#F57F20;" d="M99.951,41.554c-3.888-3.728-7.746-7.487-11.564-11.288
		c-0.453-0.451-0.79-1.2-0.844-1.841c-0.269-3.173-1.766-4.621-4.974-4.793c-0.595-0.031-1.299-0.338-1.729-0.751
		c-3.224-3.102-6.36-6.295-9.585-9.396c-3.188-3.064-6.277-6.267-9.719-9.021c-4.104-3.285-8.365-3.104-12.611-0.013
		c-0.813,0.594-1.608,1.23-2.329,1.932c-5.655,5.501-11.279,11.033-16.951,16.516c-0.426,0.412-1.138,0.698-1.735,0.735
		c-3.055,0.19-4.523,1.602-4.849,4.63c-0.074,0.688-0.403,1.487-0.882,1.968c-3.804,3.815-7.656,7.582-11.534,11.321
		c-0.751,0.724-1.057,1.454-1.055,2.51c0.032,20.835,0.023,41.785,0.024,62.62c0,2.056,0.15,2.317,2.23,2.317
		c14.436,0,28.872,0,43.308,0c14.532,0,29.064,0,43.596,0c2.081,0,2.231-0.262,2.231-2.315c0.002-20.836-0.006-41.728,0.025-62.563
		C101.007,43.066,100.705,42.277,99.951,41.554z M88,37.26c2,2.59,6.709,7.049,6.709,7.049L88,50.997C88,50.997,88,42.221,88,37.26z
		 M40.478,20.146c3.413-3.312,6.796-6.653,10.212-9.963c0.583-0.564,1.244-1.057,1.906-1.53c1.771-1.265,3.595-1.294,5.34-0.003
		c1.153,0.854,2.259,1.792,3.286,2.794c3.857,3.752,7.674,7.738,11.504,11.518C72.925,23.156,73.104,23,73.496,24
		c-12.247,0-24.195,0-36.143,0c-0.098,0-0.195-0.408-0.292-0.516C38.202,22.438,39.368,21.223,40.478,20.146z M23,37.44
		c0,4.718,0,9.165,0,13.508c-2-2.253-6.506-6.518-6.506-6.518S21,39.952,23,37.44z M15,50.813c2.674,2.689,5.388,5.406,8.116,8.135
		H23c0,0,0.733,0.69,1.966,1.849c4.836,4.833,9.731,9.715,14.666,14.648C31.676,83.24,23,91.318,15,99.582
		C15,83.01,15,66.734,15,50.813z M17.681,104c0.737-1,1.244-1.429,1.764-1.939c8.07-7.917,16.14-15.878,24.216-23.806
		c5.039,4.66,9.164,8.412,9.709,8.718c1.305,0.734,2.78,0.715,4.126,0.003c0.381-0.202,4.5-3.94,9.591-8.618
		c8.405,8.258,16.795,16.602,25.188,24.837c0.127,0.125,0.22-0.194,0.499,0.806C67.695,104,42.895,104,17.681,104z M96,99.563
		c-9-8.214-16.584-16.245-24.707-24.201c4.467-4.467,8.983-8.904,13.459-13.348C86.741,60.166,88,58.994,88,58.994h-0.221
		c2.771-2.771,5.526-5.546,8.221-8.338C96,66.897,96,83.038,96,99.563z"/>
	<path style="fill-rule:evenodd;clip-rule:evenodd;fill:#104760;" d="M84,23H27c-2.209,0-4,1.791-4,4v23.948
		c0,0,28.86,27.354,30.37,28.235c1.305,0.766,2.78,0.746,4.126,0.003c1.051-0.582,30.471-28.159,30.502-28.188L88,50.997V27
		C88,24.791,86.209,23,84,23z"/>
	<path style="fill-rule:evenodd;clip-rule:evenodd;fill:#F0F0F2;" d="M34,29c7,0,15,0,23,0c2,0,2,4,0,4c-8,0-16,0-23,0
		C30,33,30,29,34,29z"/>
	<path style="fill-rule:evenodd;clip-rule:evenodd;fill:#F0F0F2;" d="M34,38c12,0,24,0,36,0c3,0,3,4,0,4c-12,0-24,0-36,0
		C30,42,30,38,34,38z"/>
	<path style="fill-rule:evenodd;clip-rule:evenodd;fill:#F0F0F2;" d="M33,49c9,0,19,0,29,0c3,0,3,4,0,4c-10,0-20,0-29,0
		C29,53,29,49,33,49z"/>
</g>
<g>
	<path style="fill-rule:evenodd;clip-rule:evenodd;fill:#F57F20;" d="M98.951,41.554c-3.888-3.728-7.746-7.487-11.564-11.288
		c-0.453-0.451-0.79-1.2-0.844-1.841c-0.269-3.173-1.766-4.621-4.974-4.793c-0.595-0.031-1.299-0.338-1.729-0.751
		c-3.224-3.102-6.36-6.295-9.585-9.396c-3.188-3.064-6.277-6.267-9.719-9.021c-4.104-3.285-8.365-3.104-12.611-0.013
		c-0.813,0.594-1.608,1.23-2.329,1.932c-5.655,5.501-11.279,11.033-16.951,16.516c-0.426,0.412-1.138,0.698-1.735,0.735
		c-3.055,0.19-4.523,1.602-4.849,4.63c-0.074,0.688-0.403,1.487-0.882,1.968c-3.804,3.815-7.656,7.582-11.534,11.321
		c-0.751,0.724-1.057,1.454-1.055,2.51c0.032,20.835,0.023,41.785,0.024,62.62c0,2.056,0.15,2.317,2.23,2.317
		c14.436,0,28.872,0,43.308,0c14.532,0,29.064,0,43.596,0c2.081,0,2.231-0.262,2.231-2.315c0.002-20.836-0.006-41.728,0.025-62.563
		C100.007,43.066,99.705,42.277,98.951,41.554z M87,37.26c2,2.59,6.709,7.049,6.709,7.049L87,50.997C87,50.997,87,42.221,87,37.26z
		 M39.478,20.146c3.413-3.312,6.796-6.653,10.212-9.963c0.583-0.564,1.244-1.057,1.906-1.53c1.771-1.265,3.595-1.294,5.34-0.003
		c1.153,0.854,2.259,1.792,3.286,2.794c3.857,3.752,7.674,7.738,11.504,11.518C71.925,23.156,72.104,23,72.496,24
		c-12.247,0-24.195,0-36.143,0c-0.098,0-0.195-0.408-0.292-0.516C37.202,22.438,38.368,21.223,39.478,20.146z M22,37.44
		c0,4.718,0,9.165,0,13.508c-2-2.253-6.506-6.518-6.506-6.518S20,39.952,22,37.44z M14,50.813c2.674,2.689,5.388,5.406,8.116,8.135
		H22c0,0,0.733,0.69,1.966,1.849c4.836,4.833,9.731,9.715,14.666,14.648C30.676,83.24,22,91.318,14,99.582
		C14,83.01,14,66.734,14,50.813z M16.681,104c0.737-1,1.244-1.429,1.764-1.939c8.07-7.917,16.14-15.878,24.216-23.806
		c5.039,4.66,9.164,8.412,9.709,8.718c1.305,0.734,2.78,0.715,4.126,0.003c0.381-0.202,4.5-3.94,9.591-8.618
		c8.405,8.258,16.795,16.602,25.188,24.837c0.127,0.125,0.22-0.194,0.499,0.806C66.695,104,41.895,104,16.681,104z M95,99.563
		c-9-8.214-16.584-16.245-24.707-24.201c4.467-4.467,8.983-8.904,13.459-13.348C85.741,60.166,87,58.994,87,58.994h-0.221
		c2.771-2.771,5.526-5.546,8.221-8.338C95,66.897,95,83.038,95,99.563z"/>
	<path style="fill-rule:evenodd;clip-rule:evenodd;fill:#104760;" d="M83,23H26c-2.209,0-4,1.791-4,4v23.948
		c0,0,28.86,27.354,30.37,28.235c1.305,0.766,2.78,0.746,4.126,0.003c1.051-0.582,30.471-28.159,30.502-28.188L87,50.997V27
		C87,24.791,85.209,23,83,23z"/>
	<path style="fill-rule:evenodd;clip-rule:evenodd;fill:#F0F0F2;" d="M33,29c7,0,15,0,23,0c2,0,2,4,0,4c-8,0-16,0-23,0
		C29,33,29,29,33,29z"/>
	<path style="fill-rule:evenodd;clip-rule:evenodd;fill:#F0F0F2;" d="M33,38c12,0,24,0,36,0c3,0,3,4,0,4c-12,0-24,0-36,0
		C29,42,29,38,33,38z"/>
	<path style="fill-rule:evenodd;clip-rule:evenodd;fill:#F0F0F2;" d="M32,49c9,0,19,0,29,0c3,0,3,4,0,4c-10,0-20,0-29,0
		C28,53,28,49,32,49z"/>
</g>
<g>
	<path style="fill-rule:evenodd;clip-rule:evenodd;fill:#F57F20;" d="M99.951,41.554c-3.888-3.728-7.746-7.487-11.564-11.288
		c-0.453-0.451-0.79-1.2-0.844-1.841c-0.269-3.173-1.766-4.621-4.974-4.793c-0.595-0.031-1.299-0.338-1.729-0.751
		c-3.224-3.102-6.36-6.295-9.585-9.396c-3.188-3.064-6.277-6.267-9.719-9.021c-4.104-3.285-8.365-3.104-12.611-0.013
		c-0.813,0.594-1.608,1.23-2.329,1.932c-5.655,5.501-11.279,11.033-16.951,16.516c-0.426,0.412-1.138,0.698-1.735,0.735
		c-3.055,0.19-4.523,1.602-4.849,4.63c-0.074,0.688-0.403,1.487-0.882,1.968c-3.804,3.815-7.656,7.582-11.534,11.321
		c-0.751,0.724-1.057,1.454-1.055,2.51c0.032,20.835,0.023,41.785,0.024,62.62c0,2.056,0.15,2.317,2.23,2.317
		c14.436,0,28.872,0,43.308,0c14.532,0,29.064,0,43.596,0c2.081,0,2.231-0.262,2.231-2.315c0.002-20.836-0.006-41.728,0.025-62.563
		C101.007,43.066,100.705,42.277,99.951,41.554z M88,37.26c2,2.59,6.709,7.049,6.709,7.049L88,50.997C88,50.997,88,42.221,88,37.26z
		 M40.478,20.146c3.413-3.312,6.796-6.653,10.212-9.963c0.583-0.564,1.244-1.057,1.906-1.53c1.771-1.265,3.595-1.294,5.34-0.003
		c1.153,0.854,2.259,1.792,3.286,2.794c3.857,3.752,7.674,7.738,11.504,11.518C72.925,23.156,73.104,23,73.496,24
		c-12.247,0-24.195,0-36.143,0c-0.098,0-0.195-0.408-0.292-0.516C38.202,22.438,39.368,21.223,40.478,20.146z M23,37.44
		c0,4.718,0,9.165,0,13.508c-2-2.253-6.506-6.518-6.506-6.518S21,39.952,23,37.44z M15,50.813c2.674,2.689,5.388,5.406,8.116,8.135
		H23c0,0,0.733,0.69,1.966,1.849c4.836,4.833,9.731,9.715,14.666,14.648C31.676,83.24,23,91.318,15,99.582
		C15,83.01,15,66.734,15,50.813z M17.681,104c0.737-1,1.244-1.429,1.764-1.939c8.07-7.917,16.14-15.878,24.216-23.806
		c5.039,4.66,9.164,8.412,9.709,8.718c1.305,0.734,2.78,0.715,4.126,0.003c0.381-0.202,4.5-3.94,9.591-8.618
		c8.405,8.258,16.795,16.602,25.188,24.837c0.127,0.125,0.22-0.194,0.499,0.806C67.695,104,42.895,104,17.681,104z M96,99.563
		c-9-8.214-16.584-16.245-24.707-24.201c4.467-4.467,8.983-8.904,13.459-13.348C86.741,60.166,88,58.994,88,58.994h-0.221
		c2.771-2.771,5.526-5.546,8.221-8.338C96,66.897,96,83.038,96,99.563z"/>
	<path style="fill-rule:evenodd;clip-rule:evenodd;fill:#104760;" d="M84,23H27c-2.209,0-4,1.791-4,4v23.948
		c0,0,28.86,27.354,30.37,28.235c1.305,0.766,2.78,0.746,4.126,0.003c1.051-0.582,30.471-28.159,30.502-28.188L88,50.997V27
		C88,24.791,86.209,23,84,23z"/>
	<path style="fill-rule:evenodd;clip-rule:evenodd;fill:#F0F0F2;" d="M34,29c7,0,15,0,23,0c2,0,2,4,0,4c-8,0-16,0-23,0
		C30,33,30,29,34,29z"/>
	<path style="fill-rule:evenodd;clip-rule:evenodd;fill:#F0F0F2;" d="M34,38c12,0,24,0,36,0c3,0,3,4,0,4c-12,0-24,0-36,0
		C30,42,30,38,34,38z"/>
	<path style="fill-rule:evenodd;clip-rule:evenodd;fill:#F0F0F2;" d="M33,49c9,0,19,0,29,0c3,0,3,4,0,4c-10,0-20,0-29,0
		C29,53,29,49,33,49z"/>
</g>
</svg>
