<?xml version="1.0" encoding="iso-8859-1"?>
<!-- Generator: Adobe Illustrator 16.0.3, SVG Export Plug-In . SVG Version: 6.00 Build 0)  -->
<!DOCTYPE svg PUBLIC "-//W3C//DTD SVG 1.1//EN" "http://www.w3.org/Graphics/SVG/1.1/DTD/svg11.dtd">
<svg version="1.1" id="Layer_1" xmlns="http://www.w3.org/2000/svg" xmlns:xlink="http://www.w3.org/1999/xlink" x="0px" y="0px"
	 width="110px" height="110px" viewBox="0 0 110 110" style="enable-background:new 0 0 110 110;" xml:space="preserve">
<g>
	<path style="fill-rule:evenodd;clip-rule:evenodd;fill:#F57F20;" d="M67.102,2.386C89.444,2.087,107.215,19.3,108.1,40.732
		c0.925,22.414-16.281,41.208-38.213,42.035C47.37,83.617,28.664,66.453,27.78,44.135C26.896,21.801,44.412,3.203,67.102,2.386z
		 M68.101,75.004c18.005-0.125,32.437-14.632,32.389-32.556c-0.048-17.947-14.696-32.526-32.532-32.382
		c-17.952,0.146-32.451,14.701-32.343,32.461C35.723,60.331,49.707,74.784,68.101,75.004z"/>
	<path style="fill-rule:evenodd;clip-rule:evenodd;fill:#F57F20;" d="M28.714,73.675c3.435-0.024,6.687,2.92,7.004,6.34
		c0.148,1.594-0.269,2.997-1.415,4.146c-6.967,6.972-13.94,13.938-20.905,20.914c-3.303,3.31-8.521,0.996-10.151-2.784
		c-1.093-2.535-0.686-4.509,1.289-6.479c6.781-6.771,13.558-13.544,20.324-20.329C25.937,74.4,27.126,73.631,28.714,73.675z"/>
	<path style="fill-rule:evenodd;clip-rule:evenodd;fill:#104760;" d="M51.893,63.493c0-13.922,0-27.815,0-41.773
		c0.188-0.008,0.379-0.024,0.571-0.024c7.313-0.001,14.626,0.002,21.942-0.009c0.374,0,0.639,0.102,0.901,0.373
		c3.521,3.629,7.055,7.244,10.571,10.878c0.188,0.195,0.336,0.527,0.336,0.795c0.018,9.753,0.014,19.504,0.013,29.256
		c0,0.16-0.017,0.319-0.026,0.505C74.753,63.493,63.339,63.493,51.893,63.493z M56.888,58.542c8.136,0,16.224,0,24.306,0
		c0-7.892,0-15.743,0-23.652c-2.957,0-5.876,0-8.848,0c0-2.777,0-5.498,0-8.226c-5.178,0-10.301,0-15.458,0
		C56.888,37.297,56.888,47.898,56.888,58.542z"/>
	<path style="fill-rule:evenodd;clip-rule:evenodd;fill:#104760;" d="M60.227,42.344c0-0.635,0-1.228,0-1.844
		c5.815,0,11.595,0,17.415,0c0,0.604,0,1.197,0,1.844C71.855,42.344,66.066,42.344,60.227,42.344z"/>
	<path style="fill-rule:evenodd;clip-rule:evenodd;fill:#104760;" d="M60.234,47.867c0-0.651,0-1.261,0-1.89
		c5.816,0,11.591,0,17.404,0c0,0.632,0,1.242,0,1.89C71.844,47.867,66.058,47.867,60.234,47.867z"/>
	<path style="fill-rule:evenodd;clip-rule:evenodd;fill:#104760;" d="M60.224,53.377c0-0.639,0-1.23,0-1.857
		c5.818,0,11.605,0,17.424,0c0,0.621,0,1.217,0,1.857C71.852,53.377,66.065,53.377,60.224,53.377z"/>
</g>
</svg>
