<?xml version="1.0" encoding="iso-8859-1"?>
<!-- Generator: Adobe Illustrator 16.0.0, SVG Export Plug-In . SVG Version: 6.00 Build 0)  -->
<!DOCTYPE svg PUBLIC "-//W3C//DTD SVG 1.1//EN" "http://www.w3.org/Graphics/SVG/1.1/DTD/svg11.dtd">
<svg version="1.1" id="Layer_1" xmlns="http://www.w3.org/2000/svg" xmlns:xlink="http://www.w3.org/1999/xlink" x="0px" y="0px"
	 width="420px" height="150px" viewBox="0 0 420 150" style="enable-background:new 0 0 420 150;" xml:space="preserve">
<g>
	<path style="fill:#FFFFFF;" d="M7.818,62.884l15.726-0.031l-1.524,6.565L6.294,69.449L7.818,62.884z"/>
	<path style="fill:#FFFFFF;" d="M32.588,62.834l15.726-0.031l-1.524,6.564l-15.726,0.031L32.588,62.834z"/>
	<path style="fill:#FFFFFF;" d="M57.358,62.786l15.726-0.031l-1.524,6.564L55.834,69.35L57.358,62.786z"/>
	<path style="fill:#FFFFFF;" d="M82.128,62.737l15.726-0.031L96.33,69.27l-15.726,0.031L82.128,62.737z"/>
	<path style="fill:#FFFFFF;" d="M106.898,62.687l15.726-0.031l-1.524,6.565l-15.726,0.031L106.898,62.687z"/>
</g>
<g>
	<path style="fill:#FFFFFF;" d="M413.09,69.449l-15.727-0.031l-1.523-6.565l15.726,0.031L413.09,69.449z"/>
	<path style="fill:#FFFFFF;" d="M388.319,69.398l-15.726-0.031l-1.523-6.564l15.725,0.031L388.319,69.398z"/>
	<path style="fill:#FFFFFF;" d="M363.55,69.35l-15.726-0.031l-1.523-6.564l15.725,0.031L363.55,69.35z"/>
	<path style="fill:#FFFFFF;" d="M338.779,69.301l-15.725-0.031l-1.524-6.564l15.726,0.031L338.779,69.301z"/>
	<path style="fill:#FFFFFF;" d="M314.01,69.252l-15.726-0.031l-1.524-6.565l15.727,0.031L314.01,69.252z"/>
</g>
<g>
	<path style="fill-rule:evenodd;clip-rule:evenodd;fill:#FFFFFF;" d="M210.467,140.486c-0.492-0.494-0.854-0.854-1.215-1.213
		c-12.335-12.336-24.674-24.67-37.006-37.008c-18.606-18.621-21.104-47.828-5.939-69.363c17.205-24.432,50.722-30.212,75.337-12.993
		c24.314,17.01,30.23,51.116,12.984,75.213c-1.878,2.623-3.991,5.121-6.262,7.414c-12.147,12.256-24.379,24.432-36.582,36.633
		C211.391,139.564,210.996,139.959,210.467,140.486z M179.16,95.252c17.167,17.264,45.074,17.342,62.441,0.172
		c17.349-17.152,17.45-45.145,0.223-62.542c-17.166-17.338-45.171-17.414-62.541-0.173C161.958,49.907,161.903,77.896,179.16,95.252
		z"/>
	<g>
		<path style="fill:#F57F20;" d="M193.049,48.358c1.62-0.607,3.316-1.303,5.089-2.089c1.772-0.784,3.532-1.645,5.279-2.582
			c1.747-0.937,3.456-1.924,5.127-2.963c1.671-1.037,3.189-2.139,4.557-3.304h7.9l-12.686,52.64h-11.318l9.115-37.903
			c-1.772,1.014-3.697,1.937-5.772,2.772c-2.077,0.835-4.052,1.557-5.925,2.164L193.049,48.358z"/>
		<path style="fill:#F57F20;" d="M233.154,77.071c1.772,0,3.253,0.494,4.443,1.481c1.189,0.987,1.785,2.545,1.785,4.672
			c0,1.165-0.216,2.229-0.646,3.189c-0.431,0.963-1,1.785-1.709,2.469c-0.71,0.684-1.52,1.216-2.431,1.596s-1.849,0.569-2.811,0.569
			c-1.773,0-3.254-0.493-4.443-1.481c-1.19-0.987-1.785-2.544-1.785-4.671c0-1.164,0.215-2.228,0.646-3.19
			c0.43-0.961,0.999-1.785,1.709-2.469c0.709-0.684,1.52-1.216,2.431-1.595C231.256,77.262,232.192,77.071,233.154,77.071z"/>
	</g>
</g>
</svg>
