<?xml version="1.0" encoding="iso-8859-1"?>
<!-- Generator: Adobe Illustrator 16.0.0, SVG Export Plug-In . SVG Version: 6.00 Build 0)  -->
<!DOCTYPE svg PUBLIC "-//W3C//DTD SVG 1.1//EN" "http://www.w3.org/Graphics/SVG/1.1/DTD/svg11.dtd">
<svg version="1.1" id="Layer_1" xmlns="http://www.w3.org/2000/svg" xmlns:xlink="http://www.w3.org/1999/xlink" x="0px" y="0px"
	 width="420px" height="150px" viewBox="0 0 420 150" style="enable-background:new 0 0 420 150;" xml:space="preserve">
<g>
	<path style="fill-rule:evenodd;clip-rule:evenodd;fill:#FFFFFF;" d="M208.853,140.719c-0.492-0.494-0.854-0.854-1.215-1.214
		c-12.335-12.336-24.674-24.669-37.006-37.008c-18.606-18.62-21.104-47.827-5.939-69.362c17.205-24.432,50.722-30.212,75.337-12.993
		c24.314,17.01,30.23,51.115,12.984,75.214c-1.878,2.622-3.991,5.121-6.262,7.413c-12.147,12.257-24.379,24.432-36.582,36.634
		C209.776,139.797,209.382,140.19,208.853,140.719z M177.546,95.483c17.167,17.265,45.074,17.343,62.441,0.172
		c17.349-17.152,17.45-45.145,0.223-62.541c-17.166-17.338-45.171-17.414-62.541-0.173
		C160.344,50.139,160.289,78.128,177.546,95.483z"/>
	<g>
		<path style="fill:#F57F20;" d="M185.206,78.596c1.772,1.062,3.671,1.874,5.697,2.431c2.025,0.558,3.975,0.835,5.849,0.835
			c3.646,0,6.431-0.684,8.356-2.051c1.924-1.367,2.886-3.494,2.886-6.381c0-1.215-0.33-2.316-0.987-3.304
			c-0.659-0.987-1.722-1.823-3.19-2.507c-1.469-0.684-3.431-1.216-5.887-1.595c-2.457-0.38-5.458-0.57-9.001-0.57
			c1.671-4.709,3.267-9.457,4.786-14.242s2.86-9.305,4.026-13.559h28.105l-2.279,9.419h-18.762
			c-0.507,1.823-1.051,3.659-1.633,5.507c-0.583,1.85-1.102,3.406-1.557,4.672c3.038,0.254,5.659,0.823,7.862,1.709
			c2.201,0.887,4.025,2.013,5.469,3.38s2.518,2.925,3.229,4.672c0.707,1.747,1.062,3.607,1.062,5.583
			c0,2.836-0.469,5.419-1.404,7.748c-0.938,2.329-2.344,4.305-4.217,5.925c-1.873,1.621-4.203,2.874-6.988,3.76
			c-2.786,0.885-6.001,1.329-9.647,1.329c-1.063,0-2.279-0.076-3.646-0.228c-1.367-0.152-2.772-0.368-4.216-0.646
			c-1.443-0.277-2.861-0.646-4.253-1.101c-1.394-0.456-2.672-0.988-3.836-1.596L185.206,78.596z"/>
		<path style="fill:#F57F20;" d="M231.54,77.304c1.772,0,3.253,0.494,4.443,1.481c1.189,0.987,1.785,2.545,1.785,4.672
			c0,1.165-0.216,2.229-0.646,3.189c-0.431,0.963-1,1.785-1.709,2.469c-0.71,0.684-1.52,1.216-2.431,1.596s-1.849,0.569-2.811,0.569
			c-1.773,0-3.254-0.493-4.443-1.481c-1.19-0.987-1.785-2.544-1.785-4.671c0-1.164,0.215-2.228,0.646-3.19
			c0.43-0.961,0.999-1.785,1.709-2.469c0.709-0.684,1.52-1.216,2.431-1.595C229.642,77.494,230.578,77.304,231.54,77.304z"/>
	</g>
</g>
<g>
	<path style="fill:#FFFFFF;" d="M7.818,64.191l15.726-0.031l-1.524,6.564L6.294,70.756L7.818,64.191z"/>
	<path style="fill:#FFFFFF;" d="M32.588,64.142l15.726-0.031l-1.524,6.564l-15.726,0.031L32.588,64.142z"/>
	<path style="fill:#FFFFFF;" d="M57.358,64.093l15.726-0.031l-1.524,6.564l-15.726,0.031L57.358,64.093z"/>
	<path style="fill:#FFFFFF;" d="M82.128,64.044l15.726-0.031l-1.524,6.564l-15.726,0.031L82.128,64.044z"/>
	<path style="fill:#FFFFFF;" d="M106.898,63.994l15.726-0.031l-1.524,6.564l-15.726,0.031L106.898,63.994z"/>
</g>
<g>
	<path style="fill:#FFFFFF;" d="M413.09,70.756l-15.727-0.031l-1.523-6.564l15.726,0.031L413.09,70.756z"/>
	<path style="fill:#FFFFFF;" d="M388.319,70.706l-15.726-0.031l-1.523-6.564l15.725,0.031L388.319,70.706z"/>
	<path style="fill:#FFFFFF;" d="M363.55,70.657l-15.726-0.031l-1.523-6.564l15.725,0.031L363.55,70.657z"/>
	<path style="fill:#FFFFFF;" d="M338.779,70.608l-15.725-0.031l-1.524-6.564l15.726,0.031L338.779,70.608z"/>
	<path style="fill:#FFFFFF;" d="M314.01,70.559l-15.726-0.031l-1.524-6.564l15.727,0.031L314.01,70.559z"/>
</g>
</svg>
