<?xml version="1.0" encoding="iso-8859-1"?>
<!-- Generator: Adobe Illustrator 16.0.0, SVG Export Plug-In . SVG Version: 6.00 Build 0)  -->
<!DOCTYPE svg PUBLIC "-//W3C//DTD SVG 1.1//EN" "http://www.w3.org/Graphics/SVG/1.1/DTD/svg11.dtd">
<svg version="1.1" id="Layer_1" xmlns="http://www.w3.org/2000/svg" xmlns:xlink="http://www.w3.org/1999/xlink" x="0px" y="0px"
	 width="420px" height="150px" viewBox="0 0 420 150" style="enable-background:new 0 0 420 150;" xml:space="preserve">
<g>
	<path style="fill-rule:evenodd;clip-rule:evenodd;fill:#FFFFFF;" d="M210.853,142.312c-0.492-0.494-0.854-0.854-1.215-1.214
		c-12.335-12.336-24.674-24.669-37.006-37.008c-18.606-18.62-21.104-47.827-5.939-69.362c17.205-24.432,50.722-30.212,75.337-12.993
		c24.314,17.01,30.23,51.115,12.984,75.214c-1.878,2.622-3.991,5.121-6.262,7.413c-12.147,12.257-24.379,24.432-36.582,36.634
		C211.776,141.39,211.382,141.783,210.853,142.312z M179.546,97.076c17.167,17.265,45.074,17.343,62.441,0.172
		c17.349-17.152,17.45-45.145,0.223-62.541c-17.166-17.338-45.171-17.414-62.541-0.173
		C162.344,51.731,162.289,79.721,179.546,97.076z"/>
	<g>
		<path style="fill:#F57F20;" d="M214.247,63.933c2.127,1.014,3.771,2.571,4.938,4.672c1.164,2.102,1.748,4.394,1.748,6.874
			c0,2.077-0.432,4.153-1.293,6.229c-0.861,2.077-2.229,3.95-4.102,5.621s-4.254,3.026-7.14,4.063
			c-2.886,1.038-6.355,1.558-10.406,1.558c-5.773,0-10.964-1.189-15.572-3.57l4.102-8.963c1.468,1.014,3.291,1.836,5.469,2.469
			c2.177,0.634,4.406,0.949,6.685,0.949c1.417,0,2.797-0.151,4.14-0.456c1.341-0.304,2.519-0.809,3.532-1.519
			c1.012-0.709,1.823-1.62,2.431-2.734c0.608-1.113,0.912-2.481,0.912-4.103c0-2.075-0.849-3.646-2.545-4.709
			c-1.697-1.063-3.963-1.596-6.798-1.596h-4.861l2.203-8.963h5.469c1.063,0,2.177-0.101,3.342-0.304
			c1.165-0.202,2.228-0.569,3.19-1.102c0.961-0.531,1.758-1.24,2.393-2.127c0.633-0.885,0.949-2.038,0.949-3.456
			c0-1.771-0.607-3.076-1.823-3.912c-1.215-0.835-2.811-1.253-4.785-1.253c-1.57,0-3.305,0.278-5.204,0.835
			c-1.899,0.559-3.862,1.368-5.887,2.432l-2.886-8.508c2.48-1.417,5.038-2.494,7.672-3.229c2.632-0.733,5.367-1.102,8.204-1.102
			c2.683,0,5.038,0.368,7.065,1.102c2.023,0.734,3.709,1.709,5.051,2.925c1.34,1.215,2.342,2.596,3,4.14
			c0.658,1.545,0.988,3.127,0.988,4.747c0,1.317-0.217,2.621-0.646,3.912c-0.432,1.291-1.062,2.507-1.898,3.646
			c-0.836,1.139-1.9,2.178-3.191,3.114C217.399,62.554,215.919,63.325,214.247,63.933z"/>
		<path style="fill:#F57F20;" d="M233.54,78.896c1.772,0,3.253,0.494,4.443,1.481c1.189,0.987,1.785,2.545,1.785,4.672
			c0,1.165-0.216,2.229-0.646,3.189c-0.431,0.963-1,1.785-1.709,2.469c-0.71,0.684-1.52,1.216-2.431,1.596s-1.849,0.569-2.811,0.569
			c-1.773,0-3.254-0.493-4.443-1.481c-1.19-0.987-1.785-2.544-1.785-4.671c0-1.164,0.215-2.228,0.646-3.19
			c0.43-0.961,0.999-1.785,1.709-2.469c0.709-0.684,1.52-1.216,2.431-1.595C231.642,79.087,232.578,78.896,233.54,78.896z"/>
	</g>
</g>
<g>
	<path style="fill:#FFFFFF;" d="M7.818,65.407l15.726-0.031L22.02,71.94L6.294,71.972L7.818,65.407z"/>
	<path style="fill:#FFFFFF;" d="M32.588,65.357l15.726-0.031l-1.524,6.564l-15.726,0.031L32.588,65.357z"/>
	<path style="fill:#FFFFFF;" d="M57.358,65.309l15.726-0.031l-1.524,6.564l-15.726,0.031L57.358,65.309z"/>
	<path style="fill:#FFFFFF;" d="M82.128,65.26l15.726-0.031l-1.524,6.564l-15.726,0.031L82.128,65.26z"/>
	<path style="fill:#FFFFFF;" d="M106.898,65.21l15.726-0.031l-1.524,6.564l-15.726,0.031L106.898,65.21z"/>
</g>
<g>
	<path style="fill:#FFFFFF;" d="M413.09,71.972l-15.727-0.031l-1.523-6.564l15.726,0.031L413.09,71.972z"/>
	<path style="fill:#FFFFFF;" d="M388.319,71.922l-15.726-0.031l-1.523-6.564l15.725,0.031L388.319,71.922z"/>
	<path style="fill:#FFFFFF;" d="M363.55,71.873l-15.726-0.031l-1.523-6.564l15.725,0.031L363.55,71.873z"/>
	<path style="fill:#FFFFFF;" d="M338.779,71.824l-15.725-0.031l-1.524-6.564l15.726,0.031L338.779,71.824z"/>
	<path style="fill:#FFFFFF;" d="M314.01,71.774l-15.726-0.031l-1.524-6.564l15.727,0.031L314.01,71.774z"/>
</g>
</svg>
