<?xml version="1.0" encoding="iso-8859-1"?>
<!-- Generator: Adobe Illustrator 16.0.0, SVG Export Plug-In . SVG Version: 6.00 Build 0)  -->
<!DOCTYPE svg PUBLIC "-//W3C//DTD SVG 1.1//EN" "http://www.w3.org/Graphics/SVG/1.1/DTD/svg11.dtd">
<svg version="1.1" id="Layer_1" xmlns="http://www.w3.org/2000/svg" xmlns:xlink="http://www.w3.org/1999/xlink" x="0px" y="0px"
	 width="420px" height="150px" viewBox="0 0 420 150" style="enable-background:new 0 0 420 150;" xml:space="preserve">
<g>
	<path style="fill-rule:evenodd;clip-rule:evenodd;fill:#FFFFFF;" d="M210.467,139.376c-0.492-0.494-0.854-0.854-1.215-1.214
		c-12.335-12.336-24.674-24.669-37.006-37.008c-18.606-18.62-21.104-47.827-5.939-69.362C183.512,7.36,217.029,1.58,241.645,18.799
		c24.314,17.01,30.23,51.115,12.984,75.214c-1.878,2.622-3.991,5.121-6.262,7.413c-12.147,12.257-24.379,24.432-36.582,36.634
		C211.391,138.454,210.996,138.848,210.467,139.376z M179.16,94.141c17.167,17.265,45.074,17.343,62.441,0.172
		c17.349-17.152,17.45-45.145,0.223-62.541c-17.166-17.338-45.171-17.414-62.541-0.173C161.958,48.796,161.903,76.785,179.16,94.141
		z"/>
	<g>
		<path style="fill:#F57F20;" d="M210.898,35.095c2.025,0,3.912,0.33,5.66,0.987c1.746,0.659,3.266,1.558,4.557,2.697
			c1.291,1.139,2.291,2.469,3,3.987c0.709,1.52,1.064,3.141,1.064,4.861c0,1.926-0.203,3.646-0.607,5.166
			c-0.406,1.519-1.09,2.988-2.051,4.405c-0.963,1.418-2.242,2.861-3.836,4.33c-1.596,1.469-3.559,3.114-5.887,4.937
			c-1.367,1.063-2.748,2.077-4.14,3.039c-1.394,0.962-2.761,1.95-4.102,2.962c-1.342,1.014-2.646,2.089-3.912,3.229
			c-1.266,1.14-2.457,2.419-3.57,3.836h22.636l-2.279,9.419h-35.017c0.456-3.19,1.24-5.95,2.354-8.279
			c1.113-2.329,2.494-4.444,4.14-6.343c1.645-1.899,3.506-3.671,5.583-5.317c2.076-1.645,4.33-3.405,6.76-5.279
			c2.279-1.771,4.216-3.304,5.811-4.596c1.595-1.291,2.886-2.48,3.874-3.569c0.986-1.089,1.709-2.114,2.164-3.077
			c0.457-0.961,0.684-1.975,0.684-3.038c0-1.316-0.469-2.417-1.404-3.304c-0.938-0.886-2.141-1.33-3.608-1.33
			c-2.077,0-4.102,0.444-6.077,1.33c-1.975,0.887-4.128,2.216-6.457,3.987l-3.874-8.279c3.038-2.48,6.077-4.228,9.115-5.241
			C204.519,35.602,207.658,35.095,210.898,35.095z"/>
		<path style="fill:#F57F20;" d="M233.154,75.961c1.772,0,3.253,0.494,4.443,1.481c1.189,0.987,1.785,2.545,1.785,4.672
			c0,1.165-0.216,2.229-0.646,3.189c-0.431,0.963-1,1.785-1.709,2.469c-0.71,0.684-1.52,1.216-2.431,1.596s-1.849,0.569-2.811,0.569
			c-1.773,0-3.254-0.493-4.443-1.481c-1.19-0.987-1.785-2.544-1.785-4.671c0-1.164,0.215-2.228,0.646-3.19
			c0.43-0.961,0.999-1.785,1.709-2.469c0.709-0.684,1.52-1.216,2.431-1.595C231.256,76.151,232.192,75.961,233.154,75.961z"/>
	</g>
</g>
<g>
	<path style="fill:#FFFFFF;" d="M7.818,62.472l15.726-0.031l-1.524,6.564L6.294,69.036L7.818,62.472z"/>
	<path style="fill:#FFFFFF;" d="M32.588,62.422l15.726-0.031l-1.524,6.564l-15.726,0.031L32.588,62.422z"/>
	<path style="fill:#FFFFFF;" d="M57.358,62.373l15.726-0.031l-1.524,6.564l-15.726,0.031L57.358,62.373z"/>
	<path style="fill:#FFFFFF;" d="M82.128,62.324l15.726-0.031l-1.524,6.564l-15.726,0.031L82.128,62.324z"/>
	<path style="fill:#FFFFFF;" d="M106.898,62.274l15.726-0.031l-1.524,6.564l-15.726,0.031L106.898,62.274z"/>
</g>
<g>
	<path style="fill:#FFFFFF;" d="M413.09,69.036l-15.727-0.031l-1.523-6.564l15.726,0.031L413.09,69.036z"/>
	<path style="fill:#FFFFFF;" d="M388.319,68.986l-15.726-0.031l-1.523-6.564l15.725,0.031L388.319,68.986z"/>
	<path style="fill:#FFFFFF;" d="M363.55,68.938l-15.726-0.031l-1.523-6.564l15.725,0.031L363.55,68.938z"/>
	<path style="fill:#FFFFFF;" d="M338.779,68.889l-15.725-0.031l-1.524-6.564l15.726,0.031L338.779,68.889z"/>
	<path style="fill:#FFFFFF;" d="M314.01,68.839l-15.726-0.031l-1.524-6.564l15.727,0.031L314.01,68.839z"/>
</g>
</svg>
