<?xml version="1.0" encoding="iso-8859-1"?>
<!-- Generator: Adobe Illustrator 16.0.0, SVG Export Plug-In . SVG Version: 6.00 Build 0)  -->
<!DOCTYPE svg PUBLIC "-//W3C//DTD SVG 1.1//EN" "http://www.w3.org/Graphics/SVG/1.1/DTD/svg11.dtd">
<svg version="1.1" id="Layer_1" xmlns="http://www.w3.org/2000/svg" xmlns:xlink="http://www.w3.org/1999/xlink" x="0px" y="0px"
	 width="420px" height="150px" viewBox="0 0 420 150" style="enable-background:new 0 0 420 150;" xml:space="preserve">
<g>
	<path style="fill-rule:evenodd;clip-rule:evenodd;fill:#FFFFFF;" d="M208.853,140.719c-0.492-0.494-0.854-0.854-1.215-1.214
		c-12.335-12.336-24.674-24.669-37.006-37.008c-18.606-18.62-21.104-47.827-5.939-69.362c17.205-24.432,50.722-30.212,75.337-12.993
		c24.314,17.01,30.23,51.115,12.984,75.214c-1.878,2.622-3.991,5.121-6.262,7.413c-12.147,12.257-24.379,24.432-36.582,36.634
		C209.776,139.797,209.382,140.19,208.853,140.719z M177.546,95.483c17.167,17.265,45.074,17.343,62.441,0.172
		c17.349-17.152,17.45-45.145,0.223-62.541c-17.166-17.338-45.171-17.414-62.541-0.173
		C160.344,50.139,160.289,78.128,177.546,95.483z"/>
	<g>
		<path style="fill:#F57F20;" d="M224.704,37.653l-7.672,31.751h5.545l-2.201,9.115h-5.621l-2.887,11.773h-10.787l2.811-11.773
			h-22.56l1.899-8.355c1.62-2.229,3.595-4.748,5.925-7.559c2.329-2.811,4.861-5.684,7.596-8.621c2.735-2.937,5.57-5.822,8.508-8.659
			c2.936-2.836,5.822-5.394,8.66-7.672H224.704z M210.804,51.022c-1.316,1.266-2.696,2.633-4.139,4.102
			c-1.443,1.469-2.9,3-4.368,4.596c-1.469,1.595-2.899,3.216-4.292,4.861c-1.393,1.646-2.696,3.254-3.912,4.823h12.305
			L210.804,51.022z"/>
		<path style="fill:#F57F20;" d="M231.54,77.304c1.772,0,3.253,0.494,4.443,1.481c1.189,0.987,1.785,2.545,1.785,4.672
			c0,1.165-0.216,2.229-0.646,3.189c-0.431,0.963-1,1.785-1.709,2.469c-0.71,0.684-1.52,1.216-2.431,1.596s-1.849,0.569-2.811,0.569
			c-1.773,0-3.254-0.493-4.443-1.481c-1.19-0.987-1.785-2.544-1.785-4.671c0-1.164,0.215-2.228,0.646-3.19
			c0.43-0.961,0.999-1.785,1.709-2.469c0.709-0.684,1.52-1.216,2.431-1.595C229.642,77.494,230.578,77.304,231.54,77.304z"/>
	</g>
</g>
<g>
	<path style="fill:#FFFFFF;" d="M7.818,64.191l15.726-0.031l-1.524,6.564L6.294,70.756L7.818,64.191z"/>
	<path style="fill:#FFFFFF;" d="M32.588,64.142l15.726-0.031l-1.524,6.564l-15.726,0.031L32.588,64.142z"/>
	<path style="fill:#FFFFFF;" d="M57.358,64.093l15.726-0.031l-1.524,6.564l-15.726,0.031L57.358,64.093z"/>
	<path style="fill:#FFFFFF;" d="M82.128,64.044l15.726-0.031l-1.524,6.564l-15.726,0.031L82.128,64.044z"/>
	<path style="fill:#FFFFFF;" d="M106.898,63.994l15.726-0.031l-1.524,6.564l-15.726,0.031L106.898,63.994z"/>
</g>
<g>
	<path style="fill:#FFFFFF;" d="M413.09,70.756l-15.727-0.031l-1.523-6.564l15.726,0.031L413.09,70.756z"/>
	<path style="fill:#FFFFFF;" d="M388.319,70.706l-15.726-0.031l-1.523-6.564l15.725,0.031L388.319,70.706z"/>
	<path style="fill:#FFFFFF;" d="M363.55,70.657l-15.726-0.031l-1.523-6.564l15.725,0.031L363.55,70.657z"/>
	<path style="fill:#FFFFFF;" d="M338.779,70.608l-15.725-0.031l-1.524-6.564l15.726,0.031L338.779,70.608z"/>
	<path style="fill:#FFFFFF;" d="M314.01,70.559l-15.726-0.031l-1.524-6.564l15.727,0.031L314.01,70.559z"/>
</g>
</svg>
