<?xml version="1.0" encoding="iso-8859-1"?>
<!-- Generator: Adobe Illustrator 16.0.3, SVG Export Plug-In . SVG Version: 6.00 Build 0)  -->
<!DOCTYPE svg PUBLIC "-//W3C//DTD SVG 1.1//EN" "http://www.w3.org/Graphics/SVG/1.1/DTD/svg11.dtd">
<svg version="1.1" id="Layer_1" xmlns="http://www.w3.org/2000/svg" xmlns:xlink="http://www.w3.org/1999/xlink" x="0px" y="0px"
	 width="110px" height="110px" viewBox="0 0 110 110" style="enable-background:new 0 0 110 110;" xml:space="preserve">
<g>
	<path style="fill-rule:evenodd;clip-rule:evenodd;fill:#F57F20;" d="M24.428,13.252c-0.262-4.152,2.258-4.57,5.262-4.072
		c0.964-4.557,0.697-3.587,4.578-3.697c1.024-0.028,2.049-0.004,3.086-0.004C37.236,4.761,37.01,4.12,37.057,3.5
		c0.094-1.272,1.166-2.175,2.473-2.185c2.202-0.019,4.405-0.008,6.607-0.005c2.356,0.004,3.341,1.369,2.655,3.67
		c-0.039,0.129-0.029,0.273-0.051,0.499c1.567,0,3.108-0.003,4.648,0c1.863,0.003,2.189,0.286,2.443,2.101
		c0.064,0.459,0.138,0.916,0.235,1.555c0.766,0,1.496-0.001,2.227,0c2.166,0.001,2.629,0.218,2.912,2.317
		c0.215,1.582,0.896,1.864,2.334,1.834c4.402-0.094,8.809-0.041,13.213-0.032c4.152,0.009,6.869,2.494,7.252,6.627
		c0.057,0.605,0.076,1.216,0.076,1.823c0.004,26.195,0.006,52.389-0.009,78.583c-0.001,1.069-0.036,2.174-0.294,3.202
		c-0.811,3.24-3.488,5.204-6.949,5.204c-22.585,0.004-45.171,0.002-67.757,0.002c-0.141,0-0.281,0.003-0.422,0
		c-3.673-0.068-6.589-2.841-6.834-6.505c-0.038-0.561-0.052-1.123-0.052-1.685C1.763,74.123,1.757,47.742,1.783,21.36
		c0.001-1.2,0.097-2.465,0.479-3.588c0.978-2.878,3.448-4.502,6.596-4.515c4.592-0.021,9.184-0.006,13.776-0.006
		C23.142,13.252,23.648,13.252,24.428,13.252z M78.06,61c0-12.507,0.001-25.014-0.001-37.521c0-2.468-0.605-3.075-3.055-3.076
		c-21.361-0.001-42.722-0.001-64.083,0c-2.519,0.001-3.187,0.657-3.188,3.131c-0.001,24.922-0.001,49.843,0,74.763
		c0,2.563,0.786,3.356,3.362,3.347c6.322-0.024,12.644-0.086,18.966-0.092c14.896-0.015,29.793-0.004,44.689-0.006
		c2.688,0,3.307-0.621,3.307-3.305C78.061,85.827,78.06,73.414,78.06,61z"/>
	<path style="fill-rule:evenodd;clip-rule:evenodd;fill:#104760;" d="M63.857,76.325c-1.377-2.75-3.916-5.675-6.768-7.443
		c-0.485-0.301-0.973-0.58-1.462-0.838c-0.805-0.444-1.605-0.835-1.605-0.835c-7.137-2.486-14.125-2.397-20.691,1.673
		c-4.828,2.993-7.311,7.611-8.239,13.114c-0.354,2.096-0.314,2.146,1.697,2.914c3.765,1.435,7.717,2.009,11.705,2.209
		c3.033,0.153,8.298,0.312,11.081,0.312l5.86,6.517c-2.331,0-9.852,0.023-12.153-0.005c-5.489-0.065-10.942-0.49-16.24-2.038
		c-1.382-0.403-2.742-0.956-4.026-1.608c-3.703-1.882-5.064-4.337-4.39-8.418c1.444-8.738,5.506-15.87,13.183-20.665
		c0.122-0.076,0.232-0.171,0.36-0.267c-0.845-1.103-1.743-2.146-2.499-3.283c-4.339-6.531-4.416-13.34-0.694-20.048
		c3.692-6.655,9.581-9.976,17.244-9.629c8.433,0.382,15.816,7.214,17.186,15.606c1.053,6.44-0.371,12.159-4.869,17.005
		c-0.096,0.104-0.173,0.224-0.272,0.354c5.209,3.035,8.71,7.68,10.304,10.909L63.857,76.325z M57.336,47.271
		c-0.004-7.058-5.495-12.768-12.276-12.766c-6.724,0.003-12.379,5.88-12.308,12.793c0.072,7.01,5.537,12.647,12.279,12.666
		C51.859,59.983,57.34,54.331,57.336,47.271z"/>
	<g>
		<path style="fill-rule:evenodd;clip-rule:evenodd;fill:#104760;" d="M67.463,83.748c7.806-7.812,23.453-23.37,31.264-31.178
			c1.847-1.848,4.316-2.062,6.197-0.556c1.907,1.525,2.198,4.394,0.632,6.272c-0.202,0.241-0.415,0.472-0.638,0.694
			c-8.92,8.923-25.686,25.591-34.6,34.522c-1.307,1.311-2.825,1.972-4.632,1.424c-0.782-0.236-1.573-0.72-2.157-1.296
			c-4.898-4.832-9.73-9.734-14.626-14.57c-2.657-2.625-1.485-6.718,1.729-7.622c1.73-0.486,3.236-0.025,4.503,1.242
			c3.705,3.707,7.412,7.409,11.113,11.12C66.421,83.976,66.934,84.293,67.463,83.748z"/>
		<path style="fill:#F0F0F2;" d="M66.938,96.621c-0.555,0-1.122-0.087-1.686-0.258c-0.998-0.301-2.01-0.908-2.775-1.664
			c-2.515-2.479-5.011-4.978-7.507-7.476c-2.368-2.37-4.737-4.74-7.121-7.095c-1.625-1.606-2.27-3.827-1.725-5.941
			c0.53-2.051,2.063-3.618,4.102-4.192c2.217-0.625,4.288-0.058,5.97,1.626l3.787,3.788c2.282,2.283,4.565,4.565,6.847,6.851
			c4.227-4.229,10.488-10.468,16.585-16.541c5.392-5.371,10.652-10.612,14.251-14.209c1.283-1.284,2.889-1.992,4.52-1.992
			c1.322,0,2.594,0.459,3.676,1.326c1.24,0.991,2.012,2.421,2.174,4.024s-0.31,3.159-1.327,4.38
			c-0.231,0.276-0.475,0.539-0.728,0.793c-4.022,4.023-9.638,9.619-15.409,15.371c-7.032,7.008-14.296,14.246-19.19,19.151
			C70.02,95.929,68.524,96.621,66.938,96.621z M51.945,72.75c-0.286,0-0.591,0.045-0.907,0.134c-0.999,0.28-1.75,1.049-2.009,2.054
			c-0.28,1.084,0.059,2.198,0.928,3.057c2.388,2.359,4.761,4.734,7.135,7.108c2.49,2.493,4.982,4.986,7.491,7.461
			c0.424,0.419,0.999,0.766,1.537,0.929c1.124,0.342,2.081,0.011,3.137-1.048c4.896-4.906,12.163-12.147,19.196-19.157
			c5.771-5.75,11.385-11.345,15.404-15.366c0.19-0.19,0.374-0.389,0.547-0.596c0.496-0.595,0.727-1.361,0.646-2.156
			c-0.08-0.795-0.458-1.499-1.062-1.983c-1.261-1.009-2.936-0.82-4.2,0.445c-3.6,3.598-8.861,8.841-14.255,14.213
			c-6.311,6.287-12.8,12.752-17.009,16.965c-0.596,0.612-1.25,0.744-1.691,0.744l0,0c-0.866,0-1.441-0.486-1.648-0.695
			c-2.438-2.442-4.879-4.885-7.321-7.327l-3.788-3.788C53.407,73.074,52.71,72.75,51.945,72.75z"/>
	</g>
</g>
</svg>
